<svg xmlns="http://www.w3.org/2000/svg" xmlns:xlink="http://www.w3.org/1999/xlink" width="5000" zoomAndPan="magnify" viewBox="0 0 3750 3749.999967" height="5000" preserveAspectRatio="xMidYMid meet" version="1.0"><defs><clipPath id="cb4856b727"><path d="M 1875.300781 3750.601562 C 841.257812 3750.601562 0 2909.339844 0 1875.300781 C 0 841.257812 841.257812 0 1875.300781 0 C 2909.339844 0 3750.597656 841.257812 3750.597656 1875.300781 C 3750.597656 2909.339844 2909.339844 3750.601562 1875.300781 3750.601562 Z M 1875.300781 157.695312 C 928.210938 157.695312 157.695312 928.195312 157.695312 1875.300781 C 157.695312 2822.402344 928.210938 3592.90625 1875.300781 3592.90625 C 2822.386719 3592.90625 3592.902344 2822.402344 3592.902344 1875.300781 C 3592.902344 928.195312 2822.386719 157.695312 1875.300781 157.695312 Z M 1875.300781 157.695312 " clip-rule="nonzero"/></clipPath><clipPath id="769bd6a63a"><path d="M 871 1071.765625 L 2878 1071.765625 L 2878 2741.265625 L 871 2741.265625 Z M 871 1071.765625 " clip-rule="nonzero"/></clipPath></defs><g clip-path="url(#cb4856b727)"><rect x="-375" width="4500" fill="#26b9f1" y="-374.999997" height="4499.99996" fill-opacity="1"/></g><g clip-path="url(#769bd6a63a)"><path fill="#323232" d="M 2767.09375 1430.132812 L 2429.527344 1430.132812 C 2368.527344 1430.132812 2318.898438 1479.757812 2318.898438 1540.757812 L 2318.898438 2630.804688 C 2318.898438 2691.804688 2368.527344 2741.429688 2429.527344 2741.429688 L 2767.09375 2741.429688 C 2828.09375 2741.429688 2877.71875 2691.804688 2877.71875 2630.804688 L 2877.71875 1540.761719 C 2877.71875 1479.761719 2828.09375 1430.132812 2767.09375 1430.132812 Z M 2806.1875 2630.808594 C 2806.1875 2652.367188 2788.648438 2669.902344 2767.09375 2669.902344 L 2429.527344 2669.902344 C 2407.96875 2669.902344 2390.429688 2652.363281 2390.429688 2630.808594 L 2390.429688 1540.761719 C 2390.429688 1519.203125 2407.96875 1501.667969 2429.527344 1501.667969 L 2767.09375 1501.667969 C 2788.652344 1501.667969 2806.1875 1519.207031 2806.1875 1540.761719 Z M 2043.527344 1739.523438 L 1705.960938 1739.523438 C 1644.960938 1739.523438 1595.332031 1789.144531 1595.332031 1850.144531 L 1595.332031 2630.804688 C 1595.332031 2691.804688 1644.960938 2741.429688 1705.960938 2741.429688 L 2043.527344 2741.429688 C 2104.527344 2741.429688 2154.152344 2691.804688 2154.152344 2630.804688 L 2154.152344 1850.144531 C 2154.152344 1789.148438 2104.527344 1739.523438 2043.527344 1739.523438 Z M 2082.621094 2630.808594 C 2082.621094 2652.367188 2065.082031 2669.902344 2043.527344 2669.902344 L 1705.960938 2669.902344 C 1684.402344 2669.902344 1666.863281 2652.363281 1666.863281 2630.808594 L 1666.863281 1850.144531 C 1666.863281 1828.585938 1684.402344 1811.050781 1705.960938 1811.050781 L 2043.527344 1811.050781 C 2065.085938 1811.050781 2082.621094 1828.589844 2082.621094 1850.144531 Z M 1319.957031 2048.914062 L 982.394531 2048.914062 C 921.394531 2048.914062 871.765625 2098.535156 871.765625 2159.535156 L 871.765625 2630.804688 C 871.765625 2691.804688 921.394531 2741.429688 982.394531 2741.429688 L 1319.960938 2741.429688 C 1380.964844 2741.429688 1430.589844 2691.804688 1430.589844 2630.804688 L 1430.589844 2159.535156 C 1430.585938 2098.535156 1380.957031 2048.914062 1319.957031 2048.914062 Z M 1359.054688 2630.808594 C 1359.054688 2652.367188 1341.515625 2669.902344 1319.957031 2669.902344 L 982.394531 2669.902344 C 960.835938 2669.902344 943.296875 2652.363281 943.296875 2630.808594 L 943.296875 2159.539062 C 943.296875 2137.980469 960.835938 2120.445312 982.394531 2120.445312 L 1319.960938 2120.445312 C 1341.523438 2120.445312 1359.0625 2137.984375 1359.0625 2159.539062 L 1359.0625 2630.808594 Z M 2249.21875 1071.765625 L 1989.832031 1071.765625 C 1970.078125 1071.765625 1954.070312 1087.773438 1954.070312 1107.53125 C 1954.070312 1127.289062 1970.078125 1143.296875 1989.832031 1143.296875 L 2165.027344 1143.296875 L 1787.699219 1506.113281 L 1554.507812 1333.800781 C 1540.097656 1323.152344 1520.027344 1324.808594 1507.5625 1337.6875 L 941.109375 1922.738281 C 927.371094 1936.929688 927.730469 1959.570312 941.921875 1973.308594 C 948.871094 1980.035156 957.835938 1983.375 966.796875 1983.375 C 976.144531 1983.375 985.480469 1979.734375 992.496094 1972.488281 L 1537.175781 1409.933594 L 1769.480469 1581.582031 C 1783.5 1591.9375 1802.960938 1590.675781 1815.519531 1578.597656 L 2213.453125 1195.964844 L 2213.453125 1377.765625 C 2213.453125 1397.519531 2229.460938 1413.53125 2249.21875 1413.53125 C 2268.976562 1413.53125 2284.984375 1397.519531 2284.984375 1377.765625 L 2284.984375 1107.53125 C 2284.984375 1087.773438 2268.976562 1071.765625 2249.21875 1071.765625 Z M 2249.21875 1071.765625 " fill-opacity="1" fill-rule="nonzero"/></g></svg>