<svg xmlns="http://www.w3.org/2000/svg" xmlns:xlink="http://www.w3.org/1999/xlink" width="5000" zoomAndPan="magnify" viewBox="0 0 3750 3749.999967" height="5000" preserveAspectRatio="xMidYMid meet" version="1.0"><defs><clipPath id="08bb64c717"><path d="M 1875.300781 3750.597656 C 841.257812 3750.597656 0 2909.339844 0 1875.300781 C 0 841.257812 841.257812 0 1875.300781 0 C 2909.339844 0 3750.597656 841.257812 3750.597656 1875.300781 C 3750.597656 2909.339844 2909.339844 3750.597656 1875.300781 3750.597656 Z M 1875.300781 157.695312 C 928.210938 157.695312 157.695312 928.195312 157.695312 1875.300781 C 157.695312 2822.402344 928.210938 3592.902344 1875.300781 3592.902344 C 2822.386719 3592.902344 3592.902344 2822.402344 3592.902344 1875.300781 C 3592.902344 928.195312 2822.386719 157.695312 1875.300781 157.695312 Z M 1875.300781 157.695312 " clip-rule="nonzero"/></clipPath><clipPath id="d0de28a971"><path d="M 959.570312 959.570312 L 2790.320312 959.570312 L 2790.320312 2790.320312 L 959.570312 2790.320312 Z M 959.570312 959.570312 " clip-rule="nonzero"/></clipPath></defs><g clip-path="url(#08bb64c717)"><rect x="-375" width="4500" fill="#26b9f1" y="-374.999997" height="4499.99996" fill-opacity="1"/></g><g clip-path="url(#d0de28a971)"><path fill="#323232" d="M 2653.988281 959.570312 L 1095.902344 959.570312 C 1093.671875 959.570312 1091.441406 959.625 1089.210938 959.734375 C 1086.984375 959.84375 1084.757812 960.007812 1082.539062 960.226562 C 1080.316406 960.445312 1078.105469 960.71875 1075.898438 961.042969 C 1073.691406 961.371094 1071.492188 961.753906 1069.304688 962.1875 C 1067.117188 962.625 1064.941406 963.113281 1062.773438 963.65625 C 1060.609375 964.195312 1058.460938 964.792969 1056.324219 965.441406 C 1054.191406 966.085938 1052.074219 966.785156 1049.972656 967.539062 C 1047.871094 968.289062 1045.789062 969.09375 1043.730469 969.945312 C 1041.667969 970.800781 1039.628906 971.703125 1037.613281 972.660156 C 1035.59375 973.613281 1033.601562 974.613281 1031.632812 975.667969 C 1029.667969 976.71875 1027.726562 977.816406 1025.8125 978.964844 C 1023.898438 980.113281 1022.015625 981.304688 1020.160156 982.546875 C 1018.304688 983.785156 1016.480469 985.070312 1014.6875 986.398438 C 1012.894531 987.726562 1011.136719 989.101562 1009.414062 990.515625 C 1007.6875 991.929688 1006 993.386719 1004.347656 994.886719 C 1002.691406 996.382812 1001.078125 997.921875 999.5 999.5 C 997.921875 1001.078125 996.382812 1002.691406 994.886719 1004.347656 C 993.386719 1006 991.929688 1007.6875 990.515625 1009.414062 C 989.097656 1011.136719 987.726562 1012.894531 986.398438 1014.6875 C 985.070312 1016.480469 983.785156 1018.304688 982.546875 1020.160156 C 981.304688 1022.015625 980.113281 1023.898438 978.964844 1025.8125 C 977.816406 1027.726562 976.71875 1029.667969 975.667969 1031.636719 C 974.613281 1033.601562 973.613281 1035.59375 972.660156 1037.613281 C 971.703125 1039.628906 970.800781 1041.667969 969.945312 1043.730469 C 969.09375 1045.789062 968.289062 1047.871094 967.539062 1049.972656 C 966.785156 1052.074219 966.085938 1054.191406 965.4375 1056.328125 C 964.792969 1058.460938 964.195312 1060.609375 963.65625 1062.777344 C 963.113281 1064.941406 962.625 1067.117188 962.1875 1069.304688 C 961.753906 1071.492188 961.371094 1073.691406 961.042969 1075.898438 C 960.71875 1078.105469 960.445312 1080.316406 960.226562 1082.539062 C 960.007812 1084.757812 959.84375 1086.984375 959.734375 1089.210938 C 959.625 1091.441406 959.570312 1093.671875 959.570312 1095.902344 L 959.570312 2283.941406 C 959.570312 2286.171875 959.625 2288.402344 959.734375 2290.632812 C 959.84375 2292.859375 960.007812 2295.082031 960.226562 2297.304688 C 960.445312 2299.523438 960.71875 2301.738281 961.042969 2303.945312 C 961.371094 2306.152344 961.753906 2308.351562 962.1875 2310.539062 C 962.625 2312.726562 963.113281 2314.902344 963.65625 2317.066406 C 964.195312 2319.230469 964.792969 2321.382812 965.4375 2323.515625 C 966.085938 2325.652344 966.785156 2327.769531 967.539062 2329.871094 C 968.289062 2331.972656 969.09375 2334.050781 969.945312 2336.113281 C 970.800781 2338.175781 971.703125 2340.214844 972.660156 2342.230469 C 973.613281 2344.246094 974.613281 2346.238281 975.667969 2348.207031 C 976.71875 2350.175781 977.816406 2352.117188 978.964844 2354.03125 C 980.113281 2355.945312 981.304688 2357.828125 982.546875 2359.683594 C 983.785156 2361.539062 985.070312 2363.363281 986.398438 2365.152344 C 987.726562 2366.945312 989.097656 2368.703125 990.515625 2370.429688 C 991.929688 2372.15625 993.386719 2373.84375 994.886719 2375.496094 C 996.382812 2377.148438 997.921875 2378.765625 999.5 2380.34375 C 1001.078125 2381.921875 1002.691406 2383.457031 1004.347656 2384.957031 C 1006 2386.457031 1007.6875 2387.910156 1009.414062 2389.328125 C 1011.136719 2390.742188 1012.894531 2392.113281 1014.6875 2393.445312 C 1016.480469 2394.773438 1018.304688 2396.058594 1020.160156 2397.296875 C 1022.015625 2398.535156 1023.898438 2399.730469 1025.8125 2400.878906 C 1027.726562 2402.023438 1029.667969 2403.125 1031.632812 2404.175781 C 1033.601562 2405.226562 1035.59375 2406.230469 1037.613281 2407.183594 C 1039.628906 2408.136719 1041.667969 2409.042969 1043.730469 2409.894531 C 1045.789062 2410.75 1047.871094 2411.550781 1049.972656 2412.304688 C 1052.074219 2413.054688 1054.191406 2413.753906 1056.324219 2414.402344 C 1058.460938 2415.050781 1060.609375 2415.644531 1062.773438 2416.1875 C 1064.941406 2416.730469 1067.117188 2417.21875 1069.304688 2417.652344 C 1071.492188 2418.089844 1073.691406 2418.46875 1075.898438 2418.796875 C 1078.105469 2419.125 1080.316406 2419.398438 1082.539062 2419.617188 C 1084.757812 2419.835938 1086.984375 2420 1089.210938 2420.109375 C 1091.441406 2420.21875 1093.671875 2420.273438 1095.902344 2420.273438 L 1602.277344 2420.273438 L 1602.277344 2543.753906 L 1573.84375 2543.753906 C 1571.613281 2543.753906 1569.382812 2543.804688 1567.15625 2543.917969 C 1564.925781 2544.027344 1562.703125 2544.191406 1560.480469 2544.410156 C 1558.261719 2544.628906 1556.046875 2544.898438 1553.839844 2545.226562 C 1551.632812 2545.554688 1549.433594 2545.9375 1547.246094 2546.371094 C 1545.058594 2546.808594 1542.882812 2547.296875 1540.71875 2547.835938 C 1538.554688 2548.378906 1536.402344 2548.976562 1534.269531 2549.621094 C 1532.132812 2550.269531 1530.015625 2550.96875 1527.914062 2551.722656 C 1525.8125 2552.472656 1523.734375 2553.277344 1521.671875 2554.128906 C 1519.609375 2554.984375 1517.570312 2555.886719 1515.554688 2556.839844 C 1513.539062 2557.796875 1511.546875 2558.796875 1509.578125 2559.851562 C 1507.609375 2560.902344 1505.667969 2562 1503.753906 2563.148438 C 1501.839844 2564.296875 1499.957031 2565.488281 1498.101562 2566.726562 C 1496.246094 2567.96875 1494.421875 2569.25 1492.628906 2570.582031 C 1490.839844 2571.910156 1489.082031 2573.28125 1487.355469 2574.699219 C 1485.628906 2576.113281 1483.941406 2577.570312 1482.289062 2579.070312 C 1480.636719 2580.566406 1479.019531 2582.105469 1477.441406 2583.683594 C 1475.863281 2585.261719 1474.328125 2586.875 1472.828125 2588.527344 C 1471.328125 2590.183594 1469.871094 2591.871094 1468.457031 2593.597656 C 1467.042969 2595.320312 1465.667969 2597.078125 1464.339844 2598.871094 C 1463.011719 2600.664062 1461.726562 2602.488281 1460.488281 2604.34375 C 1459.246094 2606.195312 1458.054688 2608.082031 1456.90625 2609.996094 C 1455.761719 2611.910156 1454.660156 2613.851562 1453.609375 2615.816406 C 1452.558594 2617.785156 1451.554688 2619.777344 1450.601562 2621.792969 C 1449.648438 2623.8125 1448.742188 2625.851562 1447.890625 2627.914062 C 1447.035156 2629.972656 1446.234375 2632.054688 1445.480469 2634.15625 C 1444.730469 2636.257812 1444.03125 2638.375 1443.382812 2640.507812 C 1442.734375 2642.644531 1442.140625 2644.792969 1441.597656 2646.957031 C 1441.054688 2649.121094 1440.566406 2651.300781 1440.132812 2653.488281 C 1439.695312 2655.675781 1439.3125 2657.875 1438.988281 2660.082031 C 1438.660156 2662.289062 1438.386719 2664.5 1438.167969 2666.722656 C 1437.949219 2668.941406 1437.785156 2671.167969 1437.675781 2673.394531 C 1437.566406 2675.625 1437.511719 2677.851562 1437.511719 2680.085938 L 1437.511719 2790.320312 L 2312.375 2790.320312 L 2312.375 2680.472656 C 2312.375 2678.242188 2312.320312 2676.011719 2312.210938 2673.785156 C 2312.101562 2671.554688 2311.9375 2669.332031 2311.71875 2667.109375 C 2311.5 2664.890625 2311.226562 2662.675781 2310.902344 2660.46875 C 2310.574219 2658.261719 2310.191406 2656.066406 2309.757812 2653.875 C 2309.320312 2651.6875 2308.832031 2649.511719 2308.289062 2647.347656 C 2307.75 2645.183594 2307.152344 2643.035156 2306.503906 2640.898438 C 2305.859375 2638.761719 2305.160156 2636.644531 2304.40625 2634.542969 C 2303.65625 2632.445312 2302.851562 2630.363281 2302 2628.300781 C 2301.144531 2626.242188 2300.242188 2624.203125 2299.285156 2622.183594 C 2298.332031 2620.167969 2297.328125 2618.175781 2296.277344 2616.207031 C 2295.226562 2614.238281 2294.125 2612.296875 2292.980469 2610.386719 C 2291.832031 2608.472656 2290.640625 2606.585938 2289.398438 2604.730469 C 2288.160156 2602.875 2286.875 2601.054688 2285.546875 2599.261719 C 2284.21875 2597.46875 2282.84375 2595.710938 2281.429688 2593.984375 C 2280.015625 2592.261719 2278.558594 2590.570312 2277.058594 2588.917969 C 2275.5625 2587.265625 2274.023438 2585.648438 2272.445312 2584.074219 C 2270.867188 2582.496094 2269.253906 2580.957031 2267.597656 2579.457031 C 2265.945312 2577.960938 2264.257812 2576.503906 2262.53125 2575.085938 C 2260.808594 2573.671875 2259.050781 2572.300781 2257.257812 2570.96875 C 2255.464844 2569.640625 2253.640625 2568.355469 2251.785156 2567.117188 C 2249.929688 2565.878906 2248.046875 2564.683594 2246.132812 2563.539062 C 2244.21875 2562.390625 2242.277344 2561.292969 2240.308594 2560.238281 C 2238.34375 2559.1875 2236.351562 2558.183594 2234.332031 2557.230469 C 2232.316406 2556.277344 2230.277344 2555.375 2228.214844 2554.519531 C 2226.15625 2553.664062 2224.074219 2552.863281 2221.972656 2552.109375 C 2219.871094 2551.359375 2217.753906 2550.660156 2215.617188 2550.011719 C 2213.484375 2549.363281 2211.335938 2548.769531 2209.171875 2548.226562 C 2207.003906 2547.683594 2204.828125 2547.195312 2202.640625 2546.761719 C 2200.453125 2546.324219 2198.253906 2545.945312 2196.046875 2545.617188 C 2193.839844 2545.289062 2191.628906 2545.015625 2189.40625 2544.796875 C 2187.1875 2544.578125 2184.960938 2544.414062 2182.734375 2544.304688 C 2180.503906 2544.195312 2178.273438 2544.140625 2176.042969 2544.140625 L 2147.609375 2544.140625 L 2147.609375 2420.273438 L 2653.988281 2420.273438 C 2656.21875 2420.273438 2658.449219 2420.21875 2660.675781 2420.109375 C 2662.90625 2420 2665.128906 2419.835938 2667.347656 2419.617188 C 2669.570312 2419.398438 2671.785156 2419.125 2673.992188 2418.796875 C 2676.199219 2418.46875 2678.394531 2418.089844 2680.582031 2417.652344 C 2682.773438 2417.21875 2684.949219 2416.730469 2687.113281 2416.1875 C 2689.277344 2415.644531 2691.425781 2415.050781 2693.5625 2414.402344 C 2695.695312 2413.753906 2697.8125 2413.054688 2699.914062 2412.304688 C 2702.015625 2411.550781 2704.097656 2410.75 2706.160156 2409.894531 C 2708.21875 2409.042969 2710.257812 2408.136719 2712.277344 2407.183594 C 2714.292969 2406.230469 2716.285156 2405.226562 2718.253906 2404.175781 C 2720.21875 2403.125 2722.160156 2402.023438 2724.074219 2400.878906 C 2725.988281 2399.730469 2727.875 2398.535156 2729.726562 2397.296875 C 2731.582031 2396.058594 2733.40625 2394.773438 2735.199219 2393.445312 C 2736.992188 2392.113281 2738.75 2390.742188 2740.476562 2389.328125 C 2742.199219 2387.910156 2743.886719 2386.457031 2745.542969 2384.957031 C 2747.195312 2383.457031 2748.808594 2381.921875 2750.386719 2380.34375 C 2751.964844 2378.765625 2753.503906 2377.148438 2755 2375.496094 C 2756.5 2373.84375 2757.957031 2372.15625 2759.371094 2370.429688 C 2760.789062 2368.703125 2762.160156 2366.945312 2763.488281 2365.152344 C 2764.816406 2363.363281 2766.101562 2361.539062 2767.34375 2359.683594 C 2768.582031 2357.828125 2769.773438 2355.945312 2770.921875 2354.03125 C 2772.070312 2352.117188 2773.167969 2350.175781 2774.222656 2348.207031 C 2775.273438 2346.238281 2776.273438 2344.246094 2777.230469 2342.230469 C 2778.183594 2340.214844 2779.085938 2338.175781 2779.941406 2336.113281 C 2780.792969 2334.050781 2781.597656 2331.972656 2782.347656 2329.871094 C 2783.101562 2327.769531 2783.800781 2325.652344 2784.449219 2323.515625 C 2785.097656 2321.382812 2785.691406 2319.230469 2786.234375 2317.066406 C 2786.773438 2314.902344 2787.261719 2312.726562 2787.699219 2310.539062 C 2788.132812 2308.351562 2788.515625 2306.152344 2788.84375 2303.945312 C 2789.171875 2301.738281 2789.445312 2299.523438 2789.664062 2297.304688 C 2789.882812 2295.082031 2790.046875 2292.859375 2790.15625 2290.632812 C 2790.265625 2288.402344 2790.320312 2286.171875 2790.320312 2283.941406 L 2790.320312 1095.902344 C 2790.320312 1093.671875 2790.265625 1091.441406 2790.15625 1089.210938 C 2790.046875 1086.984375 2789.882812 1084.757812 2789.664062 1082.539062 C 2789.445312 1080.316406 2789.171875 1078.105469 2788.84375 1075.898438 C 2788.515625 1073.691406 2788.132812 1071.492188 2787.699219 1069.304688 C 2787.261719 1067.117188 2786.773438 1064.941406 2786.234375 1062.777344 C 2785.691406 1060.609375 2785.09375 1058.460938 2784.449219 1056.328125 C 2783.800781 1054.191406 2783.101562 1052.074219 2782.347656 1049.972656 C 2781.597656 1047.871094 2780.792969 1045.789062 2779.941406 1043.730469 C 2779.085938 1041.667969 2778.183594 1039.628906 2777.230469 1037.613281 C 2776.273438 1035.59375 2775.273438 1033.601562 2774.21875 1031.636719 C 2773.167969 1029.667969 2772.070312 1027.726562 2770.921875 1025.8125 C 2769.773438 1023.898438 2768.582031 1022.015625 2767.34375 1020.160156 C 2766.101562 1018.304688 2764.816406 1016.480469 2763.488281 1014.6875 C 2762.160156 1012.894531 2760.789062 1011.136719 2759.371094 1009.414062 C 2757.957031 1007.6875 2756.5 1006 2755 1004.347656 C 2753.503906 1002.691406 2751.964844 1001.078125 2750.386719 999.5 C 2748.808594 997.921875 2747.195312 996.382812 2745.542969 994.886719 C 2743.886719 993.386719 2742.199219 991.929688 2740.476562 990.515625 C 2738.75 989.101562 2736.992188 987.726562 2735.199219 986.398438 C 2733.40625 985.070312 2731.582031 983.785156 2729.726562 982.546875 C 2727.875 981.304688 2725.988281 980.113281 2724.074219 978.964844 C 2722.160156 977.816406 2720.21875 976.71875 2718.253906 975.667969 C 2716.285156 974.613281 2714.292969 973.613281 2712.277344 972.660156 C 2710.257812 971.703125 2708.21875 970.800781 2706.160156 969.945312 C 2704.097656 969.09375 2702.015625 968.289062 2699.914062 967.539062 C 2697.8125 966.785156 2695.695312 966.085938 2693.5625 965.441406 C 2691.425781 964.792969 2689.277344 964.195312 2687.113281 963.65625 C 2684.949219 963.113281 2682.773438 962.625 2680.582031 962.1875 C 2678.394531 961.753906 2676.199219 961.371094 2673.992188 961.042969 C 2671.785156 960.71875 2669.570312 960.445312 2667.347656 960.226562 C 2665.128906 960.007812 2662.90625 959.84375 2660.675781 959.734375 C 2658.449219 959.625 2656.21875 959.570312 2653.988281 959.570312 Z M 1095.902344 1037.472656 L 2653.988281 1037.472656 C 2655.898438 1037.472656 2657.808594 1037.566406 2659.714844 1037.753906 C 2661.617188 1037.941406 2663.507812 1038.222656 2665.386719 1038.597656 C 2667.261719 1038.96875 2669.117188 1039.433594 2670.945312 1039.988281 C 2672.777344 1040.542969 2674.578125 1041.1875 2676.34375 1041.921875 C 2678.113281 1042.652344 2679.839844 1043.46875 2681.527344 1044.371094 C 2683.21875 1045.273438 2684.855469 1046.257812 2686.445312 1047.320312 C 2688.039062 1048.382812 2689.574219 1049.523438 2691.054688 1050.734375 C 2692.53125 1051.949219 2693.949219 1053.234375 2695.300781 1054.585938 C 2696.65625 1055.941406 2697.9375 1057.355469 2699.152344 1058.835938 C 2700.367188 1060.3125 2701.503906 1061.847656 2702.566406 1063.441406 C 2703.628906 1065.03125 2704.613281 1066.671875 2705.515625 1068.359375 C 2706.417969 1070.046875 2707.234375 1071.773438 2707.96875 1073.542969 C 2708.699219 1075.308594 2709.34375 1077.109375 2709.898438 1078.941406 C 2710.453125 1080.773438 2710.917969 1082.625 2711.292969 1084.503906 C 2711.664062 1086.378906 2711.945312 1088.269531 2712.132812 1090.175781 C 2712.320312 1092.078125 2712.414062 1093.988281 2712.414062 1095.902344 L 2712.414062 2153.257812 L 1037.472656 2153.257812 L 1037.472656 1095.902344 C 1037.472656 1093.988281 1037.566406 1092.078125 1037.753906 1090.175781 C 1037.941406 1088.269531 1038.222656 1086.378906 1038.597656 1084.503906 C 1038.96875 1082.625 1039.433594 1080.773438 1039.988281 1078.941406 C 1040.542969 1077.109375 1041.1875 1075.308594 1041.921875 1073.542969 C 1042.652344 1071.773438 1043.46875 1070.046875 1044.371094 1068.359375 C 1045.273438 1066.671875 1046.257812 1065.03125 1047.320312 1063.441406 C 1048.382812 1061.847656 1049.523438 1060.3125 1050.734375 1058.835938 C 1051.949219 1057.355469 1053.234375 1055.941406 1054.585938 1054.585938 C 1055.9375 1053.234375 1057.355469 1051.949219 1058.835938 1050.734375 C 1060.3125 1049.523438 1061.847656 1048.382812 1063.441406 1047.320312 C 1065.03125 1046.257812 1066.671875 1045.273438 1068.359375 1044.371094 C 1070.046875 1043.46875 1071.773438 1042.652344 1073.542969 1041.921875 C 1075.308594 1041.1875 1077.109375 1040.542969 1078.941406 1039.988281 C 1080.773438 1039.433594 1082.625 1038.96875 1084.503906 1038.597656 C 1086.378906 1038.222656 1088.269531 1037.941406 1090.175781 1037.753906 C 1092.078125 1037.566406 1093.988281 1037.472656 1095.902344 1037.472656 Z M 2176.042969 2622.046875 C 2177.957031 2622.046875 2179.867188 2622.140625 2181.769531 2622.328125 C 2183.675781 2622.515625 2185.566406 2622.796875 2187.441406 2623.167969 C 2189.320312 2623.542969 2191.171875 2624.007812 2193.003906 2624.5625 C 2194.835938 2625.117188 2196.636719 2625.761719 2198.402344 2626.492188 C 2200.171875 2627.226562 2201.898438 2628.042969 2203.585938 2628.945312 C 2205.273438 2629.847656 2206.914062 2630.828125 2208.503906 2631.894531 C 2210.097656 2632.957031 2211.632812 2634.09375 2213.109375 2635.308594 C 2214.589844 2636.523438 2216.003906 2637.804688 2217.359375 2639.160156 C 2218.710938 2640.511719 2219.996094 2641.929688 2221.210938 2643.40625 C 2222.421875 2644.886719 2223.5625 2646.421875 2224.625 2648.011719 C 2225.6875 2649.605469 2226.671875 2651.242188 2227.574219 2652.929688 C 2228.476562 2654.617188 2229.292969 2656.347656 2230.023438 2658.113281 C 2230.757812 2659.882812 2231.402344 2661.683594 2231.957031 2663.511719 C 2232.511719 2665.34375 2232.976562 2667.199219 2233.347656 2669.074219 C 2233.722656 2670.953125 2234.003906 2672.84375 2234.191406 2674.746094 C 2234.378906 2676.652344 2234.472656 2678.558594 2234.472656 2680.472656 L 2234.472656 2712.414062 L 1515.414062 2712.414062 L 1515.414062 2680.472656 C 1515.414062 2678.558594 1515.507812 2676.652344 1515.695312 2674.746094 C 1515.882812 2672.84375 1516.164062 2670.953125 1516.539062 2669.074219 C 1516.910156 2667.199219 1517.375 2665.34375 1517.929688 2663.511719 C 1518.488281 2661.683594 1519.132812 2659.882812 1519.863281 2658.113281 C 1520.59375 2656.347656 1521.414062 2654.617188 1522.316406 2652.929688 C 1523.21875 2651.242188 1524.199219 2649.605469 1525.261719 2648.011719 C 1526.324219 2646.421875 1527.464844 2644.886719 1528.679688 2643.40625 C 1529.890625 2641.929688 1531.175781 2640.511719 1532.527344 2639.160156 C 1533.882812 2637.804688 1535.296875 2636.523438 1536.777344 2635.308594 C 1538.257812 2634.09375 1539.792969 2632.957031 1541.382812 2631.894531 C 1542.972656 2630.828125 1544.613281 2629.847656 1546.300781 2628.945312 C 1547.988281 2628.042969 1549.714844 2627.226562 1551.484375 2626.492188 C 1553.253906 2625.761719 1555.050781 2625.117188 1556.882812 2624.5625 C 1558.714844 2624.007812 1560.570312 2623.542969 1562.445312 2623.167969 C 1564.320312 2622.796875 1566.210938 2622.515625 1568.117188 2622.328125 C 1570.019531 2622.140625 1571.929688 2622.046875 1573.84375 2622.046875 Z M 2069.800781 2544.140625 L 1680.183594 2544.140625 L 1680.183594 2420.273438 L 2069.703125 2420.273438 Z M 2653.988281 2342.371094 L 1095.902344 2342.371094 C 1093.988281 2342.371094 1092.078125 2342.277344 1090.175781 2342.089844 C 1088.269531 2341.902344 1086.378906 2341.621094 1084.503906 2341.246094 C 1082.625 2340.875 1080.773438 2340.410156 1078.941406 2339.855469 C 1077.109375 2339.296875 1075.308594 2338.652344 1073.542969 2337.921875 C 1071.773438 2337.191406 1070.046875 2336.371094 1068.359375 2335.46875 C 1066.671875 2334.566406 1065.03125 2333.585938 1063.441406 2332.523438 C 1061.847656 2331.460938 1060.3125 2330.320312 1058.835938 2329.105469 C 1057.355469 2327.894531 1055.9375 2326.609375 1054.585938 2325.257812 C 1053.234375 2323.902344 1051.949219 2322.488281 1050.734375 2321.007812 C 1049.523438 2319.527344 1048.382812 2317.992188 1047.320312 2316.402344 C 1046.257812 2314.8125 1045.273438 2313.171875 1044.371094 2311.484375 C 1043.46875 2309.796875 1042.652344 2308.070312 1041.921875 2306.300781 C 1041.1875 2304.53125 1040.542969 2302.734375 1039.988281 2300.902344 C 1039.433594 2299.070312 1038.96875 2297.21875 1038.597656 2295.339844 C 1038.222656 2293.464844 1037.941406 2291.574219 1037.753906 2289.667969 C 1037.566406 2287.765625 1037.472656 2285.855469 1037.472656 2283.941406 L 1037.472656 2230.773438 L 2712.414062 2230.773438 L 2712.414062 2283.941406 C 2712.414062 2285.855469 2712.320312 2287.765625 2712.132812 2289.667969 C 2711.945312 2291.574219 2711.664062 2293.464844 2711.292969 2295.339844 C 2710.917969 2297.21875 2710.453125 2299.070312 2709.898438 2300.902344 C 2709.34375 2302.734375 2708.699219 2304.53125 2707.96875 2306.300781 C 2707.234375 2308.070312 2706.417969 2309.796875 2705.515625 2311.484375 C 2704.613281 2313.171875 2703.628906 2314.8125 2702.566406 2316.402344 C 2701.503906 2317.992188 2700.367188 2319.527344 2699.152344 2321.007812 C 2697.9375 2322.488281 2696.65625 2323.902344 2695.300781 2325.257812 C 2693.949219 2326.609375 2692.53125 2327.894531 2691.050781 2329.105469 C 2689.574219 2330.320312 2688.039062 2331.460938 2686.445312 2332.523438 C 2684.855469 2333.585938 2683.21875 2334.570312 2681.527344 2335.46875 C 2679.839844 2336.371094 2678.113281 2337.191406 2676.34375 2337.921875 C 2674.578125 2338.652344 2672.777344 2339.296875 2670.945312 2339.855469 C 2669.117188 2340.410156 2667.261719 2340.875 2665.386719 2341.246094 C 2663.507812 2341.621094 2661.617188 2341.902344 2659.714844 2342.089844 C 2657.808594 2342.277344 2655.898438 2342.371094 2653.988281 2342.371094 Z M 2653.988281 2342.371094 " fill-opacity="1" fill-rule="nonzero"/></g></svg>