<svg xmlns="http://www.w3.org/2000/svg" xmlns:xlink="http://www.w3.org/1999/xlink" width="5000" zoomAndPan="magnify" viewBox="0 0 3750 3749.999967" height="5000" preserveAspectRatio="xMidYMid meet" version="1.0"><defs><clipPath id="9140a1a23f"><path d="M 988.636719 4 L 2761.636719 4 L 2761.636719 3746 L 988.636719 3746 Z M 988.636719 4 " clip-rule="nonzero"/></clipPath></defs><g clip-path="url(#9140a1a23f)"><path fill="#26b9f1" d="M 2353.097656 621.535156 L 2762.003906 621.535156 L 2762.003906 4.804688 L 2239.308594 4.804688 L 2239.308594 7.078125 C 1552.628906 31.945312 1411.695312 417.273438 1399.210938 823.230469 L 1397.929688 823.230469 L 1397.929688 1251.417969 L 988.949219 1251.417969 L 988.949219 1868.527344 L 1397.929688 1868.527344 L 1397.929688 3745.398438 L 2132.03125 3745.398438 L 2132.03125 1868.527344 L 2658.136719 1868.527344 L 2762.015625 1251.417969 L 2132.03125 1251.417969 L 2132.03125 868.4375 C 2132.03125 732.210938 2222.910156 621.535156 2353.097656 621.535156 Z M 2353.097656 621.535156 " fill-opacity="1" fill-rule="nonzero"/></g></svg>