<svg xmlns="http://www.w3.org/2000/svg" xmlns:xlink="http://www.w3.org/1999/xlink" width="5000" zoomAndPan="magnify" viewBox="0 0 3750 3749.999967" height="5000" preserveAspectRatio="xMidYMid meet" version="1.0"><defs><clipPath id="c47bb34392"><path d="M 4 395 L 3746 395 L 3746 3436.636719 L 4 3436.636719 Z M 4 395 " clip-rule="nonzero"/></clipPath></defs><g clip-path="url(#c47bb34392)"><path fill="#26b9f1" d="M 3362.726562 1152.871094 C 3364.96875 1185.875 3364.96875 1218.878906 3364.96875 1252.109375 C 3364.96875 2266.539062 2592.785156 3436.414062 1180.863281 3436.414062 L 1180.863281 3435.8125 C 763.753906 3436.488281 355.320312 3317.046875 4.210938 3091.707031 C 64.824219 3098.964844 125.8125 3102.632812 186.949219 3102.785156 C 532.597656 3103.082031 868.367188 2987.082031 1140.304688 2773.496094 C 811.792969 2767.285156 523.765625 2553.097656 423.117188 2240.347656 C 538.210938 2262.574219 656.742188 2258.007812 769.664062 2227.101562 C 411.519531 2154.734375 153.875 1840.039062 153.875 1474.601562 C 153.875 1471.234375 153.875 1468.089844 153.875 1464.875 C 260.585938 1524.296875 380.089844 1557.300781 502.289062 1560.964844 C 165.023438 1335.628906 61.085938 886.898438 264.777344 535.980469 C 654.5 1015.621094 1229.503906 1307.1875 1846.789062 1338.023438 C 1784.902344 1071.375 1869.460938 792.003906 2068.886719 604.53125 C 2378.09375 313.859375 2864.347656 328.753906 3154.992188 637.835938 C 3326.878906 603.933594 3491.660156 540.84375 3642.445312 451.488281 C 3585.125 629.230469 3465.246094 780.179688 3305.03125 876.046875 C 3457.164062 858.085938 3605.851562 817.371094 3745.863281 755.183594 C 3642.746094 909.648438 3512.910156 1044.207031 3362.726562 1152.871094 Z M 3362.726562 1152.871094 " fill-opacity="1" fill-rule="nonzero"/></g></svg>