<svg xmlns="http://www.w3.org/2000/svg" xmlns:xlink="http://www.w3.org/1999/xlink" width="5000" zoomAndPan="magnify" viewBox="0 0 3750 3749.999967" height="5000" preserveAspectRatio="xMidYMid meet" version="1.0"><path fill="#26b9f1" d="M 1874.179688 338.109375 C 2374.5625 338.109375 2433.71875 339.75 2631.738281 348.789062 C 2814.144531 357.007812 2913.5625 387.40625 2980.117188 413.699219 C 3067.210938 447.386719 3129.65625 488.46875 3195.386719 554.203125 C 3261.121094 619.933594 3301.378906 682.378906 3335.890625 769.472656 C 3361.359375 835.207031 3391.761719 934.625 3400.800781 1117.851562 C 3409.835938 1315.871094 3411.480469 1375.027344 3411.480469 1875.410156 C 3411.480469 2375.792969 3409.835938 2434.953125 3400.800781 2632.96875 C 3392.582031 2815.375 3362.183594 2914.796875 3335.890625 2981.347656 C 3302.203125 3068.445312 3261.121094 3130.890625 3195.386719 3196.621094 C 3129.65625 3262.351562 3067.210938 3302.613281 2980.117188 3337.121094 C 2914.382812 3362.59375 2814.964844 3392.996094 2631.738281 3402.03125 C 2433.71875 3411.070312 2374.5625 3412.714844 1874.179688 3412.714844 C 1373.792969 3412.714844 1314.636719 3411.070312 1116.621094 3402.03125 C 934.214844 3393.816406 834.792969 3363.414062 768.242188 3337.121094 C 681.144531 3303.433594 618.699219 3262.351562 552.96875 3196.621094 C 487.238281 3130.890625 446.976562 3068.445312 412.46875 2981.347656 C 386.996094 2915.617188 356.59375 2816.199219 347.558594 2632.96875 C 338.519531 2434.953125 336.875 2375.792969 336.875 1875.410156 C 336.875 1375.027344 338.519531 1315.871094 347.558594 1117.851562 C 355.773438 935.445312 386.175781 836.027344 412.46875 769.472656 C 446.15625 682.378906 487.238281 619.933594 552.96875 554.203125 C 618.699219 488.46875 681.144531 448.210938 768.242188 413.699219 C 833.972656 388.230469 933.390625 357.828125 1116.621094 348.789062 C 1314.636719 339.75 1373.792969 338.109375 1874.179688 338.109375 M 1874.179688 0.410156 C 1364.757812 0.410156 1301.488281 2.875 1101.007812 11.914062 C 901.347656 20.953125 764.953125 52.996094 645.816406 99.007812 C 522.566406 146.664062 418.21875 210.753906 313.871094 315.101562 C 210.34375 419.453125 146.253906 523.800781 98.597656 647.046875 C 52.585938 766.1875 20.542969 902.582031 11.503906 1102.242188 C 2.464844 1301.902344 0 1365.988281 0 1874.589844 C 0 2384.011719 2.464844 2447.277344 11.503906 2647.761719 C 20.542969 2847.421875 52.585938 2983.8125 98.597656 3102.953125 C 146.253906 3226.199219 210.34375 3330.550781 314.691406 3434.898438 C 419.039062 3539.246094 523.390625 3603.335938 646.636719 3650.992188 C 765.777344 3697.003906 902.167969 3729.046875 1101.828125 3738.085938 C 1301.488281 3747.125 1365.578125 3749.589844 1875 3749.589844 C 2384.421875 3749.589844 2447.6875 3747.125 2648.171875 3738.085938 C 2847.832031 3729.046875 2984.222656 3697.003906 3103.363281 3650.992188 C 3226.609375 3603.335938 3330.960938 3539.246094 3435.308594 3434.898438 C 3539.660156 3330.550781 3603.746094 3226.199219 3651.402344 3102.953125 C 3697.414062 2983.8125 3729.457031 2847.421875 3738.496094 2647.761719 C 3747.535156 2448.101562 3750 2384.011719 3750 1874.589844 C 3750 1365.167969 3747.535156 1301.902344 3738.496094 1101.417969 C 3729.457031 901.757812 3697.414062 765.367188 3651.402344 646.226562 C 3603.746094 522.980469 3539.65625 418.628906 3435.308594 314.28125 C 3330.960938 209.929688 3226.609375 145.84375 3103.363281 98.1875 C 2984.222656 52.175781 2847.832031 20.132812 2648.171875 11.09375 C 2447.6875 2.875 2383.601562 0.410156 1874.179688 0.410156 " fill-opacity="1" fill-rule="nonzero"/><path fill="#26b9f1" d="M 1874.179688 912.441406 C 1342.570312 912.441406 912.027344 1342.984375 912.027344 1874.589844 C 912.027344 2406.195312 1343.394531 2837.5625 1875 2837.5625 C 2406.605469 2837.5625 2837.972656 2407.015625 2837.972656 1874.589844 C 2837.148438 1342.984375 2405.785156 912.441406 1874.179688 912.441406 M 1874.179688 2499.863281 C 1529.085938 2499.863281 1249.726562 2220.503906 1249.726562 1875.410156 C 1249.726562 1530.320312 1529.085938 1250.960938 1874.179688 1250.960938 C 2219.269531 1250.960938 2498.628906 1530.320312 2498.628906 1875.410156 C 2499.453125 2219.683594 2219.269531 2499.863281 1874.179688 2499.863281 " fill-opacity="1" fill-rule="nonzero"/><path fill="#26b9f1" d="M 3100.078125 874.644531 C 3100.078125 998.714844 2999.015625 1099.777344 2874.945312 1099.777344 C 2750.875 1099.777344 2649.8125 998.714844 2649.8125 874.644531 C 2649.8125 750.574219 2750.875 649.511719 2874.945312 649.511719 C 2999.015625 649.511719 3100.078125 749.753906 3100.078125 874.644531 " fill-opacity="1" fill-rule="nonzero"/></svg>