<svg xmlns="http://www.w3.org/2000/svg" xmlns:xlink="http://www.w3.org/1999/xlink" width="5000" zoomAndPan="magnify" viewBox="0 0 3750 3749.999967" height="5000" preserveAspectRatio="xMidYMid meet" version="1.0"><defs><g/></defs><path fill="#004fac" d="M 3750 1875 C 3750 1905.6875 3749.246094 1936.351562 3747.742188 1967 C 3746.234375 1997.652344 3743.980469 2028.242188 3740.972656 2058.78125 C 3737.964844 2089.320312 3734.207031 2119.765625 3729.707031 2150.121094 C 3725.203125 2180.472656 3719.957031 2210.699219 3713.972656 2240.792969 C 3707.984375 2270.890625 3701.265625 2300.820312 3693.808594 2330.585938 C 3686.351562 2360.355469 3678.167969 2389.917969 3669.261719 2419.285156 C 3660.355469 2448.648438 3650.730469 2477.777344 3640.394531 2506.667969 C 3630.054688 2535.558594 3619.015625 2564.179688 3607.273438 2592.53125 C 3595.53125 2620.882812 3583.097656 2648.925781 3569.980469 2676.664062 C 3556.859375 2704.40625 3543.066406 2731.804688 3528.601562 2758.867188 C 3514.136719 2785.929688 3499.015625 2812.621094 3483.242188 2838.941406 C 3467.464844 2865.261719 3451.054688 2891.179688 3434.003906 2916.695312 C 3416.957031 2942.207031 3399.292969 2967.289062 3381.011719 2991.9375 C 3362.734375 3016.582031 3343.859375 3040.765625 3324.394531 3064.488281 C 3304.925781 3088.207031 3284.890625 3111.4375 3264.28125 3134.171875 C 3243.675781 3156.910156 3222.523438 3179.125 3200.824219 3200.824219 C 3179.128906 3222.523438 3156.910156 3243.675781 3134.171875 3264.285156 C 3111.4375 3284.890625 3088.207031 3304.925781 3064.488281 3324.394531 C 3040.765625 3343.859375 3016.582031 3362.734375 2991.9375 3381.011719 C 2967.289062 3399.292969 2942.207031 3416.957031 2916.695312 3434.003906 C 2891.179688 3451.054688 2865.261719 3467.464844 2838.941406 3483.242188 C 2812.621094 3499.015625 2785.929688 3514.136719 2758.867188 3528.601562 C 2731.804688 3543.066406 2704.40625 3556.859375 2676.664062 3569.980469 C 2648.925781 3583.097656 2620.878906 3595.53125 2592.53125 3607.273438 C 2564.179688 3619.015625 2535.558594 3630.054688 2506.667969 3640.394531 C 2477.777344 3650.730469 2448.648438 3660.355469 2419.285156 3669.261719 C 2389.917969 3678.167969 2360.355469 3686.351562 2330.585938 3693.808594 C 2300.820312 3701.265625 2270.890625 3707.984375 2240.792969 3713.972656 C 2210.699219 3719.957031 2180.472656 3725.203125 2150.121094 3729.707031 C 2119.765625 3734.207031 2089.320312 3737.964844 2058.78125 3740.972656 C 2028.242188 3743.980469 1997.652344 3746.234375 1967 3747.742188 C 1936.351562 3749.246094 1905.6875 3750 1875 3750 C 1844.3125 3750 1813.648438 3749.246094 1782.996094 3747.742188 C 1752.347656 3746.234375 1721.753906 3743.980469 1691.21875 3740.972656 C 1660.679688 3737.964844 1630.234375 3734.207031 1599.878906 3729.707031 C 1569.527344 3725.203125 1539.300781 3719.957031 1509.207031 3713.972656 C 1479.109375 3707.984375 1449.179688 3701.265625 1419.410156 3693.808594 C 1389.644531 3686.351562 1360.082031 3678.167969 1330.714844 3669.261719 C 1301.351562 3660.355469 1272.222656 3650.730469 1243.332031 3640.394531 C 1214.4375 3630.054688 1185.816406 3619.015625 1157.46875 3607.273438 C 1129.117188 3595.53125 1101.074219 3583.097656 1073.332031 3569.980469 C 1045.59375 3556.859375 1018.191406 3543.066406 991.128906 3528.601562 C 964.070312 3514.136719 937.378906 3499.015625 911.058594 3483.242188 C 884.738281 3467.464844 858.820312 3451.054688 833.304688 3434.003906 C 807.792969 3416.957031 782.710938 3399.292969 758.0625 3381.011719 C 733.417969 3362.734375 709.234375 3343.859375 685.511719 3324.394531 C 661.792969 3304.925781 638.5625 3284.890625 615.828125 3264.28125 C 593.089844 3243.675781 570.871094 3222.523438 549.175781 3200.824219 C 527.476562 3179.125 506.324219 3156.910156 485.714844 3134.171875 C 465.109375 3111.4375 445.070312 3088.207031 425.605469 3064.488281 C 406.136719 3040.765625 387.265625 3016.582031 368.984375 2991.9375 C 350.707031 2967.289062 333.042969 2942.207031 315.996094 2916.695312 C 298.945312 2891.179688 282.535156 2865.261719 266.757812 2838.941406 C 250.984375 2812.621094 235.863281 2785.929688 221.398438 2758.867188 C 206.933594 2731.804688 193.140625 2704.40625 180.019531 2676.664062 C 166.898438 2648.925781 154.46875 2620.882812 142.726562 2592.53125 C 130.984375 2564.179688 119.941406 2535.558594 109.605469 2506.667969 C 99.265625 2477.777344 89.644531 2448.648438 80.738281 2419.285156 C 71.828125 2389.917969 63.648438 2360.351562 56.191406 2330.585938 C 48.734375 2300.820312 42.015625 2270.890625 36.027344 2240.792969 C 30.039062 2210.699219 24.796875 2180.472656 20.292969 2150.121094 C 15.792969 2119.765625 12.035156 2089.320312 9.027344 2058.78125 C 6.019531 2028.242188 3.765625 1997.652344 2.257812 1967 C 0.753906 1936.351562 0 1905.6875 0 1875 C 0 1844.3125 0.753906 1813.648438 2.257812 1783 C 3.765625 1752.347656 6.019531 1721.757812 9.027344 1691.21875 C 12.035156 1660.679688 15.792969 1630.234375 20.292969 1599.878906 C 24.796875 1569.527344 30.039062 1539.300781 36.027344 1509.207031 C 42.015625 1479.109375 48.734375 1449.179688 56.191406 1419.410156 C 63.648438 1389.644531 71.828125 1360.082031 80.738281 1330.714844 C 89.644531 1301.351562 99.265625 1272.222656 109.605469 1243.332031 C 119.941406 1214.441406 130.984375 1185.820312 142.726562 1157.46875 C 154.46875 1129.117188 166.898438 1101.074219 180.019531 1073.335938 C 193.140625 1045.59375 206.933594 1018.195312 221.398438 991.132812 C 235.863281 964.070312 250.984375 937.378906 266.757812 911.058594 C 282.535156 884.738281 298.945312 858.820312 315.996094 833.304688 C 333.042969 807.792969 350.707031 782.710938 368.984375 758.0625 C 387.265625 733.417969 406.136719 709.234375 425.605469 685.511719 C 445.070312 661.792969 465.109375 638.5625 485.714844 615.828125 C 506.324219 593.089844 527.476562 570.871094 549.175781 549.175781 C 570.871094 527.476562 593.089844 506.324219 615.828125 485.714844 C 638.5625 465.109375 661.792969 445.074219 685.511719 425.605469 C 709.234375 406.136719 733.417969 387.265625 758.0625 368.984375 C 782.710938 350.707031 807.792969 333.042969 833.304688 315.996094 C 858.820312 298.945312 884.738281 282.535156 911.058594 266.757812 C 937.378906 250.984375 964.070312 235.863281 991.132812 221.398438 C 1018.191406 206.933594 1045.59375 193.140625 1073.332031 180.019531 C 1101.074219 166.898438 1129.117188 154.46875 1157.46875 142.726562 C 1185.816406 130.984375 1214.4375 119.941406 1243.332031 109.605469 C 1272.222656 99.265625 1301.351562 89.644531 1330.714844 80.738281 C 1360.082031 71.828125 1389.644531 63.648438 1419.410156 56.191406 C 1449.179688 48.734375 1479.109375 42.015625 1509.207031 36.027344 C 1539.300781 30.042969 1569.527344 24.796875 1599.878906 20.292969 C 1630.234375 15.792969 1660.679688 12.035156 1691.21875 9.027344 C 1721.753906 6.019531 1752.347656 3.765625 1782.996094 2.257812 C 1813.648438 0.753906 1844.3125 0 1875 0 C 1905.6875 0 1936.351562 0.753906 1967 2.257812 C 1997.652344 3.765625 2028.242188 6.019531 2058.78125 9.027344 C 2089.320312 12.035156 2119.765625 15.792969 2150.121094 20.292969 C 2180.472656 24.796875 2210.699219 30.042969 2240.792969 36.027344 C 2270.890625 42.015625 2300.820312 48.734375 2330.585938 56.191406 C 2360.355469 63.648438 2389.917969 71.828125 2419.285156 80.738281 C 2448.648438 89.644531 2477.777344 99.265625 2506.667969 109.605469 C 2535.558594 119.941406 2564.179688 130.984375 2592.53125 142.726562 C 2620.882812 154.46875 2648.925781 166.898438 2676.664062 180.019531 C 2704.40625 193.140625 2731.808594 206.933594 2758.871094 221.398438 C 2785.929688 235.863281 2812.621094 250.984375 2838.941406 266.757812 C 2865.261719 282.535156 2891.179688 298.945312 2916.695312 315.996094 C 2942.207031 333.042969 2967.289062 350.707031 2991.9375 368.984375 C 3016.582031 387.265625 3040.765625 406.136719 3064.488281 425.605469 C 3088.207031 445.074219 3111.4375 465.109375 3134.171875 485.714844 C 3156.910156 506.324219 3179.128906 527.476562 3200.824219 549.175781 C 3222.523438 570.871094 3243.675781 593.089844 3264.28125 615.828125 C 3284.890625 638.5625 3304.925781 661.792969 3324.394531 685.511719 C 3343.859375 709.234375 3362.734375 733.417969 3381.011719 758.0625 C 3399.292969 782.710938 3416.957031 807.792969 3434.003906 833.304688 C 3451.054688 858.820312 3467.464844 884.738281 3483.242188 911.058594 C 3499.015625 937.378906 3514.136719 964.070312 3528.601562 991.132812 C 3543.066406 1018.195312 3556.859375 1045.59375 3569.980469 1073.335938 C 3583.097656 1101.074219 3595.53125 1129.117188 3607.273438 1157.46875 C 3619.015625 1185.820312 3630.054688 1214.4375 3640.394531 1243.332031 C 3650.730469 1272.222656 3660.355469 1301.351562 3669.261719 1330.714844 C 3678.171875 1360.082031 3686.351562 1389.644531 3693.808594 1419.410156 C 3701.265625 1449.179688 3707.984375 1479.109375 3713.972656 1509.207031 C 3719.957031 1539.300781 3725.203125 1569.527344 3729.707031 1599.878906 C 3734.207031 1630.234375 3737.964844 1660.679688 3740.972656 1691.21875 C 3743.980469 1721.757812 3746.234375 1752.347656 3747.742188 1783 C 3749.246094 1813.648438 3750 1844.3125 3750 1875 Z M 3750 1875 " fill-opacity="1" fill-rule="nonzero"/><g fill="#ffffff" fill-opacity="1"><g transform="translate(801.68928, 2935.121633)"><g><path d="M 1783.324219 -906.777344 L 1598.191406 -906.777344 L 1598.191406 -2266.941406 L 986.117188 -2266.941406 L 41.5625 -476.058594 L 1114.578125 -476.058594 L 1114.578125 0 L 1598.191406 0 L 1598.191406 -476.058594 L 1783.324219 -476.058594 Z M 649.855469 -906.777344 L 1114.578125 -1824.886719 L 1114.578125 -906.777344 Z M 649.855469 -906.777344 "/></g></g></g></svg>