<svg width="21" height="22" viewBox="0 0 21 22" fill="none" xmlns="http://www.w3.org/2000/svg">
<path id="Vector" d="M19.626 4.98C16.296 4.65 12.946 4.48 9.60598 4.48C7.62598 4.48 5.64598 4.58 3.66598 4.78L1.62598 4.98M7.12598 3.97L7.34598 2.66C7.50598 1.71 7.62598 1 9.31598 1H11.936C13.626 1 13.756 1.75 13.906 2.67L14.126 3.97M17.476 8.14L16.826 18.21C16.716 19.78 16.626 21 13.836 21H7.41598C4.62598 21 4.53598 19.78 4.42598 18.21L3.77598 8.14M8.95598 15.5H12.286M8.12598 11.5H13.126" stroke="#0860C6" stroke-width="1.5" stroke-linecap="round" stroke-linejoin="round"/>
</svg>
