<svg width="24" height="19" viewBox="0 0 24 19" fill="none" xmlns="http://www.w3.org/2000/svg">
<g id="camera" clip-path="url(#clip0_1_1434)">
<path id="Vector" d="M22.7376 14.6722C22.7376 15.0701 22.5346 15.4516 22.1733 15.7329C21.812 16.0142 21.3219 16.1722 20.811 16.1722H3.47153C2.96056 16.1722 2.47052 16.0142 2.10921 15.7329C1.7479 15.4516 1.54492 15.0701 1.54492 14.6722V6.42224C1.54492 6.02442 1.7479 5.64289 2.10921 5.36158C2.47052 5.08028 2.96056 4.92224 3.47153 4.92224H7.32474L9.25134 2.67224H15.0312L16.9578 4.92224H20.811C21.3219 4.92224 21.812 5.08028 22.1733 5.36158C22.5346 5.64289 22.7376 6.02442 22.7376 6.42224V14.6722Z" stroke="white" stroke-width="2" stroke-linecap="round" stroke-linejoin="round"/>
<path id="Vector_2" d="M12.1413 13.1722C14.2694 13.1722 15.9945 11.8291 15.9945 10.1722C15.9945 8.51539 14.2694 7.17224 12.1413 7.17224C10.0132 7.17224 8.28809 8.51539 8.28809 10.1722C8.28809 11.8291 10.0132 13.1722 12.1413 13.1722Z" stroke="white" stroke-width="2" stroke-linecap="round" stroke-linejoin="round"/>
</g>
<defs>
<clipPath id="clip0_1_1434">
<rect width="23.1193" height="18" fill="white" transform="translate(0.581543 0.422241)"/>
</clipPath>
</defs>
</svg>
