<svg width="28" height="28" viewBox="0 0 28 28" fill="none" xmlns="http://www.w3.org/2000/svg">
<g id="checkmark" clip-path="url(#clip0_55_679)">
<g id="Layer 2">
<g id="checkmark_2">
<path id="Vector" d="M11.5033 21C11.3434 20.9995 11.1852 20.9661 11.0387 20.9018C10.8922 20.8376 10.7605 20.7439 10.6517 20.6267L4.98168 14.595C4.76972 14.3691 4.65618 14.0683 4.66603 13.7587C4.67587 13.4491 4.8083 13.1561 5.03418 12.9442C5.26005 12.7322 5.56087 12.6187 5.87047 12.6285C6.18006 12.6384 6.47306 12.7708 6.68501 12.9967L11.4917 18.1183L21.3033 7.38499C21.4029 7.261 21.5268 7.15867 21.6673 7.08429C21.8079 7.00992 21.9622 6.96506 22.1207 6.95248C22.2792 6.9399 22.4386 6.95986 22.5892 7.01113C22.7397 7.0624 22.8782 7.14391 22.996 7.25064C23.1139 7.35737 23.2087 7.48708 23.2747 7.63179C23.3406 7.7765 23.3763 7.93316 23.3794 8.09215C23.3826 8.25114 23.3533 8.4091 23.2932 8.55633C23.2331 8.70356 23.1435 8.83696 23.03 8.94832L12.3667 20.615C12.2589 20.7344 12.1276 20.8302 11.9811 20.8965C11.8345 20.9628 11.6758 20.998 11.515 21H11.5033Z" fill="white"/>
</g>
</g>
</g>
<defs>
<clipPath id="clip0_55_679">
<rect width="28" height="28" fill="white"/>
</clipPath>
</defs>
</svg>
