<svg width="132" height="34" viewBox="0 0 132 34" fill="none" xmlns="http://www.w3.org/2000/svg">
<g clip-path="url(#clip0_1_809)">
<path d="M8.36025 9.02114C8.37967 8.92628 8.37967 8.82848 8.36025 8.73362C8.36025 8.30233 8.72061 7.87104 8.93683 7.43975C10.3555 4.65322 12.6987 2.44323 15.5675 1.18605C16.7095 0.660349 17.9243 0.308987 19.1711 0.143761C19.8186 0.0902531 20.4695 0.0902531 21.117 0.143761C22.5335 0.169908 23.935 0.437329 25.2612 0.934463C26.5515 1.43247 27.7648 2.11008 28.8648 2.94715C30.5375 4.19265 31.8544 5.85299 32.6846 7.76321C33.1985 8.90984 33.5619 10.1179 33.7657 11.3573C33.7657 11.7886 33.7657 12.2199 33.7657 12.6512C33.7657 15.3108 33.7657 17.9704 33.7657 20.63C33.8015 21.0846 33.8015 21.5412 33.7657 21.9958C33.6683 22.6114 33.4493 23.2016 33.1214 23.7322C32.7936 24.2628 32.3634 24.7232 31.8558 25.0867C31.2855 25.5181 30.6369 25.8354 29.9458 26.0211C29.0405 26.2898 28.0764 26.2898 27.1711 26.0211C26.6557 25.8754 26.1685 25.6446 25.7296 25.3383C25.7296 25.3383 25.5494 25.3383 25.4053 25.3383C25.2612 25.3383 25.4053 25.3383 25.4053 25.5539C25.259 25.9816 25.0906 26.4015 24.9008 26.8118C23.9227 28.6655 22.4832 30.2373 20.7206 31.3763C19.1113 32.5009 17.2813 33.2726 15.3512 33.6406C14.1549 33.7936 12.9439 33.7936 11.7476 33.6406C9.87034 33.4894 8.05535 32.8983 6.45035 31.9154C4.22238 30.6368 2.38982 28.7718 1.15305 26.5243C0.602717 25.3941 0.249321 24.1787 0.108002 22.9302C0.0723977 22.3677 0.0723977 21.8035 0.108002 21.241C0.108002 18.9408 0.108002 16.6406 0.108002 14.3404C0.108002 13.8013 0.108002 13.2262 0.108002 12.6871C0.166559 11.5131 0.653607 10.4009 1.47737 9.56025C2.33852 8.65463 3.50837 8.1033 4.75665 8.0148C5.69584 7.89522 6.64945 8.05791 7.49539 8.48203L8.21611 8.84143C8.25362 8.90904 8.30236 8.96981 8.36025 9.02114ZM18.3062 17V20.5941C18.3416 21.0246 18.3416 21.4574 18.3062 21.8879C18.1379 22.6154 17.8128 23.2976 17.3534 23.8871C16.894 24.4765 16.3113 24.959 15.646 25.3011C14.9806 25.6432 14.2485 25.8365 13.5006 25.8678C12.7527 25.899 12.0069 25.7674 11.3152 25.482C10.5354 25.1943 9.84173 24.7135 9.29958 24.0848C8.75742 23.456 8.38457 22.7 8.21611 21.8879C8.10272 21.3925 8.04232 20.8865 8.03593 20.3784V13.4059C8.07348 13.1316 8.07348 12.8536 8.03593 12.5793C7.91194 12.1752 7.69442 11.8058 7.40093 11.501C7.10743 11.1961 6.74618 10.9644 6.34634 10.8245C5.94651 10.6846 5.51929 10.6404 5.09917 10.6954C4.67905 10.7505 4.2778 10.9034 3.92782 11.1417C3.64759 11.3257 3.41174 11.5695 3.23727 11.8553C3.0628 12.1412 2.95404 12.4621 2.91881 12.7949C2.88388 13.2135 2.88388 13.6343 2.91881 14.0529V16.6406C2.90093 16.8559 2.90093 17.0722 2.91881 17.2875C2.95478 17.7301 2.95478 18.1748 2.91881 18.6173C2.91881 19.4799 2.91881 20.3425 2.91881 21.2051C2.86381 21.8748 2.86381 22.548 2.91881 23.2178C3.23146 24.86 3.94374 26.4006 4.99307 27.7041C6.04239 29.0076 7.39664 30.0341 8.93683 30.6934C10.8559 31.5083 12.9626 31.7818 15.0269 31.4841C16.3054 31.308 17.5328 30.8673 18.6305 30.1903C19.805 29.4669 20.8419 28.5422 21.6936 27.4588C22.4176 26.5538 22.9563 25.5158 23.2792 24.4038C23.6374 23.2382 23.8315 22.0286 23.8557 20.8097C23.8557 18.3298 23.8557 15.8139 23.8557 13.334C23.8755 13.1308 23.8755 12.9262 23.8557 12.723C23.7871 12.3348 23.6328 11.9666 23.4039 11.6451C23.1751 11.3237 22.8774 11.057 22.5325 10.8643C22.1876 10.6717 21.8041 10.558 21.4097 10.5313C21.0153 10.5047 20.6199 10.5658 20.2521 10.7104C19.7695 10.8776 19.3491 11.187 19.0466 11.5978C18.7442 12.0085 18.574 12.5012 18.5585 13.0106C18.5585 13.2622 18.5585 13.5497 18.5585 13.8372L18.3062 17ZM31.5314 17C31.5314 15.9937 31.5314 14.9514 31.5314 13.945C31.5131 13.0788 31.4409 12.2146 31.3152 11.3573C31.0844 10.0798 30.6071 8.85923 29.9098 7.76321C28.953 6.2438 27.6103 5.00383 26.0179 4.16913C24.1204 3.19069 21.9748 2.79482 19.8519 3.0315C17.729 3.26817 15.724 4.12677 14.09 5.49894C12.5045 6.83215 11.382 8.63097 10.8828 10.6385C10.6334 11.5904 10.4884 12.5665 10.4503 13.5497C10.4503 14.5201 10.4503 15.4545 10.4503 16.4249C10.4503 16.4249 10.4503 16.6046 10.4503 16.6406C10.4831 16.7141 10.5001 16.7937 10.5001 16.8742C10.5001 16.9547 10.4831 17.0343 10.4503 17.1078V18.1142C10.3785 19.2392 10.3785 20.3676 10.4503 21.4926C10.4696 22.0521 10.6866 22.5868 11.063 23.0021C11.3693 23.3741 11.7789 23.6476 12.2405 23.7883C12.7021 23.9289 13.1951 23.9305 13.6576 23.7928C14.1217 23.7001 14.5503 23.4791 14.8944 23.155C15.2385 22.8308 15.4842 22.4167 15.6035 21.9598C15.6587 21.6146 15.6587 21.2628 15.6035 20.9175C15.6035 19.2643 15.6035 17.6469 15.6035 16.0296C15.6035 14.9873 15.6035 13.945 15.6035 12.9027C15.6341 12.1959 15.8317 11.5063 16.1801 10.8901C16.7231 9.95828 17.5389 9.21444 18.518 8.75832C19.497 8.3022 20.5926 8.15563 21.6576 8.33827C22.2726 8.42907 22.8634 8.64109 23.3955 8.96196C23.9276 9.28283 24.3903 9.70614 24.7566 10.2072C25.528 11.1488 25.9369 12.3341 25.9098 13.5497V18.186C25.9098 19.0486 25.9098 19.9471 25.9098 20.8457C25.857 21.2513 25.857 21.662 25.9098 22.0676C25.9929 22.4754 26.1837 22.8537 26.4624 23.1633C26.7412 23.4729 27.0978 23.7026 27.4954 23.8287C27.8295 23.8837 28.1703 23.8837 28.5044 23.8287C29.08 23.821 29.6367 23.6227 30.0868 23.2648C30.537 22.9069 30.855 22.4099 30.9909 21.852C31.0263 21.4935 31.0263 21.1323 30.9909 20.7738L31.5314 17Z" fill="white"/>
<path d="M42.8828 23.1099V27.7822C42.8828 28.2135 42.8828 28.1776 42.4864 28.1776H39.7117V11.9683C39.7117 11.5729 39.7117 11.6089 40.072 11.6089H41.5855C41.6282 11.5983 41.6725 11.5965 41.7159 11.6036C41.7593 11.6106 41.8007 11.6264 41.8378 11.6499C41.8749 11.6734 41.9068 11.7042 41.9315 11.7404C41.9563 11.7766 41.9735 11.8175 41.9819 11.8605C41.9819 12.1121 42.2342 12.3636 42.3423 12.5793C42.4504 12.7949 42.3423 12.5793 42.5225 12.5793L42.8108 12.3636C43.7535 11.6727 44.8846 11.2841 46.054 11.2495C47.2193 11.1906 48.3785 11.4517 49.4054 12.0042C50.7314 12.6831 51.7491 13.8395 52.2522 15.2389C52.579 16.1605 52.7139 17.1388 52.6486 18.1142C52.5729 19.5665 52.0006 20.9491 51.027 22.0317C50.2535 22.9054 49.2378 23.5307 48.1081 23.8288C47.3353 24.046 46.529 24.1191 45.7297 24.0444C44.9014 23.9746 44.1001 23.7164 43.3873 23.2896L42.8828 23.1099ZM45.9099 20.9535H46.1621C46.8067 20.9334 47.4293 20.7155 47.9453 20.3296C48.4612 19.9437 48.8452 19.4086 49.045 18.797C49.1702 18.2895 49.1702 17.7592 49.045 17.2516C49.0069 16.8068 48.8748 16.375 48.6574 15.9848C48.4401 15.5945 48.1423 15.2546 47.7837 14.9873C47.3499 14.6665 46.8441 14.4563 46.3103 14.3748C45.7765 14.2934 45.2308 14.3433 44.7207 14.5201C44.2869 14.6428 43.8866 14.8617 43.5496 15.1604C43.2126 15.4592 42.9477 15.83 42.7747 16.2452C42.494 16.8513 42.406 17.5286 42.5225 18.186C42.6065 18.8631 42.9102 19.4942 43.3873 19.9831C43.707 20.3244 44.1 20.589 44.5369 20.7571C44.9738 20.9252 45.4432 20.9923 45.9099 20.9535Z" fill="white"/>
<path d="M69.6216 18.2579C69.7219 18.7987 69.9574 19.3055 70.3062 19.7315C70.6365 20.1484 71.0906 20.4504 71.6035 20.5941C72.3073 20.8148 73.062 20.8148 73.7657 20.5941C74.3676 20.4143 74.8893 20.0337 75.2432 19.5159C75.2857 19.4495 75.3443 19.395 75.4136 19.3573C75.4829 19.3196 75.5606 19.2999 75.6396 19.3002H78.8828C78.8828 19.3002 78.8828 19.3002 78.8828 19.5518C78.5414 20.5012 77.9773 21.3553 77.2376 22.0431C76.4979 22.7308 75.604 23.2321 74.6306 23.5053C73.8593 23.7307 73.0537 23.8159 72.2522 23.7569C70.9143 23.689 69.6323 23.2003 68.5901 22.361C67.5478 21.5216 66.7988 20.3747 66.4504 19.0846C65.9681 17.5083 66.0704 15.8116 66.7387 14.3044C67.1025 13.4194 67.6707 12.6326 68.3971 12.008C69.1235 11.3835 69.9876 10.9388 70.9189 10.7104C72.5671 10.2267 74.3397 10.4074 75.8558 11.2135C76.8148 11.7143 77.6275 12.4542 78.2148 13.3611C78.8021 14.2681 79.144 15.3112 79.2071 16.389C79.2791 16.8776 79.2791 17.374 79.2071 17.8626C79.2071 18.0423 79.2071 18.0423 78.9549 18.0423H69.6216V18.2579ZM75.7116 15.9218C75.7116 15.9218 75.7116 15.9218 75.7116 15.7421C75.6013 15.4682 75.4687 15.2038 75.3153 14.9514C75.0334 14.4965 74.6354 14.1244 74.1621 13.8731C73.665 13.6468 73.1228 13.5362 72.5765 13.5497C71.9509 13.5504 71.3416 13.7492 70.8365 14.1173C70.3314 14.4855 69.9564 15.004 69.7657 15.5983C69.7657 15.9218 69.7657 15.9218 69.9819 15.9218H75.4234C75.4234 15.9218 75.6756 15.9577 75.7477 15.9218H75.7116Z" fill="white"/>
<path d="M80.4324 19.4799V17C80.4389 16.48 80.4993 15.9621 80.6126 15.4545C80.7947 14.5274 81.2314 13.6689 81.8738 12.9746C82.6281 12.0769 83.6502 11.4429 84.791 11.1649C85.9318 10.887 87.1318 10.9795 88.2162 11.4292C89.3893 11.8691 90.3881 12.6761 91.063 13.7294C91.412 14.3015 91.6446 14.9366 91.7477 15.5983C91.8012 16.1721 91.8012 16.7497 91.7477 17.3235V21.9958C91.8022 22.3049 91.8022 22.6211 91.7477 22.9302C91.6224 23.3254 91.3529 23.6592 90.9925 23.8656C90.6321 24.0719 90.2071 24.1358 89.8017 24.0444C89.4388 23.9843 89.1053 23.8081 88.8518 23.5422C88.5982 23.2763 88.4383 22.9354 88.3963 22.5708C88.3768 22.3436 88.3768 22.1152 88.3963 21.888V17C88.4164 16.7728 88.4164 16.5443 88.3963 16.3171C88.3199 16.0301 88.1838 15.7622 87.997 15.5309C87.8101 15.2997 87.5766 15.1101 87.3116 14.9746C87.0466 14.839 86.7561 14.7605 86.4587 14.7442C86.1614 14.7278 85.8639 14.7739 85.5855 14.8795C85.2977 14.9876 85.0363 15.1558 84.8188 15.3727C84.6013 15.5896 84.4327 15.8503 84.3243 16.1374C84.2728 16.3985 84.2728 16.6671 84.3243 16.9281V22.1395C84.3767 22.4488 84.3767 22.7647 84.3243 23.074C84.2556 23.2912 84.1436 23.4924 83.9949 23.6653C83.8463 23.8382 83.6641 23.9794 83.4594 24.0803C83.2186 24.1948 82.9549 24.2534 82.6882 24.2516C82.4214 24.2499 82.1585 24.1879 81.9193 24.0703C81.68 23.9527 81.4705 23.7825 81.3066 23.5726C81.1427 23.3627 81.0286 23.1185 80.9729 22.8583C80.9373 22.6442 80.9373 22.4256 80.9729 22.2114V19.6237L80.4324 19.4799Z" fill="white"/>
<path d="M65.1891 16.1015V18.6892C65.1847 19.1737 65.1243 19.6562 65.0089 20.1269C64.7636 21.2111 64.1839 22.1915 63.3512 22.9302C62.6218 23.6051 61.7269 24.0762 60.7566 24.296C60.071 24.4664 59.3583 24.5001 58.6595 24.3953C57.9608 24.2904 57.2896 24.0491 56.6846 23.685C55.99 23.3361 55.3856 22.8318 54.9188 22.2114C54.4241 21.6091 54.0895 20.8922 53.9458 20.1269C53.8011 19.551 53.7285 18.9594 53.7296 18.3657V13.4059C53.7229 13.0197 53.8094 12.6376 53.9819 12.2918C54.122 11.9741 54.3653 11.7127 54.6725 11.5497C54.9798 11.3867 55.3331 11.3316 55.6756 11.3932C56.0539 11.4201 56.4123 11.5728 56.6932 11.827C56.9742 12.0811 57.1615 12.422 57.2251 12.7949C57.2428 13.0102 57.2428 13.2266 57.2251 13.4419V18.0782C57.1893 18.4127 57.1893 18.7501 57.2251 19.0846C57.2925 19.4742 57.4659 19.8378 57.7265 20.1357C57.9871 20.4336 58.3247 20.6543 58.7026 20.7738C59.2094 20.9481 59.7645 20.9179 60.2493 20.6895C60.7341 20.4612 61.1101 20.0529 61.2972 19.5518C61.4069 19.3402 61.4685 19.107 61.4774 18.8689C61.4774 18.5455 61.4774 18.2579 61.4774 17.9704V13.4059C61.4245 13.1208 61.4245 12.8284 61.4774 12.5433C61.5334 12.2914 61.6517 12.0574 61.8217 11.8628C61.9917 11.6682 62.2078 11.5191 62.4503 11.4292C62.6803 11.3273 62.9299 11.2766 63.1815 11.2808C63.4331 11.285 63.6808 11.3439 63.9073 11.4534C64.1338 11.5629 64.3335 11.7204 64.4927 11.9149C64.6518 12.1093 64.7665 12.3361 64.8287 12.5793C64.8659 12.8175 64.8659 13.0599 64.8287 13.2981V15.9937L65.1891 16.1015Z" fill="white"/>
<path d="M118.775 11.6448C118.775 11.6448 118.991 11.6448 119.099 11.6448H122.126C122.16 11.6119 122.205 11.5934 122.252 11.5934C122.299 11.5934 122.345 11.6119 122.378 11.6448V12.0042L125.081 18.2579C125.081 18.4736 125.081 18.6892 125.405 18.833C125.532 18.6628 125.618 18.4662 125.658 18.2579C126.558 16.1015 127.423 13.945 128.288 11.8245C128.305 11.7641 128.344 11.7122 128.397 11.679C128.451 11.6457 128.515 11.6335 128.576 11.6448H131.676C131.676 11.6448 131.676 11.6448 131.676 11.8245L130.054 15.4186C128.937 17.9704 127.82 20.5222 126.667 23.074C126.342 23.8288 126.018 24.5476 125.622 25.2664C125.301 25.7838 124.927 26.2658 124.504 26.704C123.842 27.3655 122.982 27.7943 122.054 27.926C121.478 27.9619 120.9 27.9619 120.324 27.926H120.072C119.892 27.926 119.892 27.926 119.856 27.6744V25.1226H121.549C121.824 25.0918 122.089 25.002 122.325 24.8593C122.562 24.7166 122.764 24.5244 122.919 24.296C123.164 23.8673 123.381 23.4231 123.567 22.9662C123.603 22.913 123.622 22.8504 123.622 22.7865C123.622 22.7225 123.603 22.66 123.567 22.6068L123.027 21.4207L118.847 12.2918C118.809 12.0779 118.785 11.8618 118.775 11.6448Z" fill="white"/>
<path d="M115.027 19.1205V23.5053C115.027 23.7209 115.027 23.7209 114.775 23.7209H111.856V15.1311C111.909 14.9309 111.909 14.7203 111.856 14.5201C111.677 14.4843 111.494 14.4843 111.315 14.5201H109.982C109.982 14.5201 109.982 14.5201 109.982 14.3404V11.9683H111.82V10.5307C111.858 10.0075 111.992 9.49581 112.216 9.02114C112.43 8.59181 112.739 8.21663 113.12 7.92399C113.501 7.63134 113.944 7.42888 114.414 7.33192C114.834 7.29675 115.256 7.29675 115.676 7.33192H117.946V9.48837H116.468H115.892C115.687 9.52773 115.498 9.62753 115.35 9.77488C115.203 9.92223 115.102 10.1104 115.063 10.315C115.043 10.4701 115.043 10.6271 115.063 10.7822V11.6089C115.063 11.6089 115.063 11.6089 115.243 11.6089H118.018C118.018 11.6089 118.198 11.6089 118.198 11.7886V14.1247C118.198 14.1247 118.198 14.3044 118.018 14.3044H115.279V18.797L115.027 19.1205Z" fill="white"/>
<path d="M94.8468 17.2516V14.3763H92.8648V13.8372C92.8344 13.7561 92.8344 13.6667 92.8648 13.5856L94.1621 12.2199L97.1892 8.9852L97.4414 8.76955C97.4414 8.76955 97.4414 8.76955 97.6216 8.76955C97.8018 8.76955 98.1261 8.76956 98.1261 9.23679V11.7167V11.8964H101.189V14.3044H98.4504C98.1982 14.3044 98.1982 14.3044 98.1982 14.556V18.9408C98.1607 19.203 98.1607 19.4693 98.1982 19.7315C98.2732 19.9676 98.404 20.1823 98.5796 20.3574C98.7552 20.5325 98.9704 20.663 99.2072 20.7378C99.4461 20.7728 99.6889 20.7728 99.9279 20.7378H101.333V23.3975H98.9549C98.006 23.4104 97.0819 23.0952 96.3396 22.5055C95.5973 21.9159 95.0825 21.0881 94.8828 20.1628C94.8471 19.8403 94.8471 19.5149 94.8828 19.1924V16.9281L94.8468 17.2516Z" fill="white"/>
<path d="M104.036 17.6829V11.8245C104.036 11.8245 104.036 11.6089 104.252 11.6089H107.243V23.5412H104.144C104.127 23.4341 104.127 23.3249 104.144 23.2178L104.036 17.6829Z" fill="white"/>
<path d="M105.658 6.86469C106.078 6.88287 106.477 7.06018 106.771 7.36058C107.066 7.66099 107.234 8.06196 107.243 8.48202C107.234 8.89856 107.064 9.2955 106.769 9.5901C106.473 9.88471 106.075 10.0543 105.658 10.0634C105.427 10.098 105.191 10.0825 104.967 10.0181C104.743 9.95356 104.535 9.84158 104.359 9.68974C104.182 9.53791 104.04 9.3498 103.943 9.13827C103.845 8.92674 103.795 8.69677 103.795 8.46405C103.795 8.23134 103.845 8.00137 103.943 7.78983C104.04 7.5783 104.182 7.3902 104.359 7.23836C104.535 7.08653 104.743 6.97455 104.967 6.91006C105.191 6.84557 105.427 6.83009 105.658 6.86469Z" fill="white"/>
</g>
<defs>
<clipPath id="clip0_1_809">
<rect width="132" height="34" fill="white"/>
</clipPath>
</defs>
</svg>
