<svg width="25" height="25" viewBox="0 0 25 25" fill="none" xmlns="http://www.w3.org/2000/svg">
<g id="map-pin" clip-path="url(#clip0_122_1793)">
<path id="Vector" d="M21.4346 10.7708C21.4346 17.7708 12.4346 23.7708 12.4346 23.7708C12.4346 23.7708 3.43457 17.7708 3.43457 10.7708C3.43457 8.3838 4.38278 6.09462 6.07061 4.40679C7.75844 2.71896 10.0476 1.77075 12.4346 1.77075C14.8215 1.77075 17.1107 2.71896 18.7985 4.40679C20.4864 6.09462 21.4346 8.3838 21.4346 10.7708Z" stroke="white" stroke-width="2" stroke-linecap="round" stroke-linejoin="round"/>
<path id="Vector_2" d="M12.4346 13.7708C14.0914 13.7708 15.4346 12.4276 15.4346 10.7708C15.4346 9.1139 14.0914 7.77075 12.4346 7.77075C10.7777 7.77075 9.43457 9.1139 9.43457 10.7708C9.43457 12.4276 10.7777 13.7708 12.4346 13.7708Z" stroke="white" stroke-width="2" stroke-linecap="round" stroke-linejoin="round"/>
</g>
<defs>
<clipPath id="clip0_122_1793">
<rect width="24" height="24" fill="white" transform="translate(0.43457 0.770752)"/>
</clipPath>
</defs>
</svg>
