<svg width="25" height="25" viewBox="0 0 25 25" fill="none" xmlns="http://www.w3.org/2000/svg">
    <g id="phone">
        <path id="Vector"
            d="M22.435 17.6907V20.6907C22.4361 20.9692 22.3791 21.2449 22.2675 21.5001C22.1559 21.7553 21.9923 21.9843 21.7871 22.1726C21.5818 22.3609 21.3396 22.5042 21.0757 22.5934C20.8119 22.6827 20.5324 22.7158 20.255 22.6907C17.1778 22.3564 14.222 21.3049 11.625 19.6207C9.20882 18.0854 7.16033 16.0369 5.62499 13.6207C3.93497 11.0119 2.88323 8.04172 2.55499 4.95073C2.53 4.67419 2.56287 4.39549 2.65149 4.13235C2.74012 3.86922 2.88256 3.62742 3.06976 3.42235C3.25695 3.21728 3.4848 3.05344 3.73878 2.94125C3.99277 2.82906 4.26733 2.77099 4.54499 2.77073H7.54499C8.0303 2.76595 8.50078 2.93781 8.86875 3.25426C9.23672 3.57071 9.47707 4.01017 9.54499 4.49073C9.67161 5.45079 9.90644 6.39345 10.245 7.30073C10.3795 7.65865 10.4087 8.04764 10.3289 8.42161C10.2491 8.79557 10.0639 9.13884 9.79499 9.41073L8.52499 10.6807C9.94855 13.1843 12.0214 15.2572 14.525 16.6807L15.795 15.4107C16.0669 15.1419 16.4101 14.9566 16.7841 14.8768C17.1581 14.7971 17.5471 14.8262 17.905 14.9607C18.8123 15.2993 19.7549 15.5341 20.715 15.6607C21.2008 15.7293 21.6444 15.9739 21.9615 16.3482C22.2787 16.7225 22.4472 17.2003 22.435 17.6907Z"
            stroke="currentColor" stroke-width="2" stroke-linecap="round" stroke-linejoin="round" />
    </g>
</svg>