<svg width="195" height="50" viewBox="0 0 195 50" fill="none" xmlns="http://www.w3.org/2000/svg">
<g id="logo 1" clip-path="url(#clip0_165_109)">
<path id="Vector" d="M12.3339 13.2664C12.3625 13.1269 12.3625 12.9831 12.3339 12.8436C12.3339 12.2093 12.8655 11.5751 13.1845 10.9408C15.2775 6.84297 18.7343 3.59299 22.9665 1.74419C24.6513 0.971102 26.4435 0.454392 28.2829 0.211413C29.2382 0.132725 30.1984 0.132725 31.1537 0.211413C33.2433 0.249865 35.311 0.643131 37.2674 1.37421C39.1711 2.10658 40.9609 3.10306 42.5838 4.33404C45.0515 6.16566 46.9943 8.60734 48.2191 11.4165C48.9773 13.1027 49.5133 14.8792 49.8139 16.7019C49.8139 17.3362 49.8139 17.9704 49.8139 18.6047C49.8139 22.5159 49.8139 26.4271 49.8139 30.3383C49.8669 31.0067 49.8669 31.6783 49.8139 32.3467C49.6703 33.2521 49.3472 34.12 48.8636 34.9003C48.3799 35.6806 47.7452 36.3576 46.9963 36.8922C46.155 37.5266 45.1982 37.9932 44.1786 38.2664C42.8431 38.6615 41.4207 38.6615 40.0851 38.2664C39.3248 38.0521 38.606 37.7127 37.9586 37.2621C37.9586 37.2621 37.6927 37.2621 37.4801 37.2621C37.2674 37.2621 37.4801 37.2622 37.4801 37.5793C37.2642 38.2082 37.0158 38.8257 36.7358 39.4292C35.2928 42.1552 33.1692 44.4666 30.5689 46.1416C28.1946 47.7954 25.4949 48.9302 22.6475 49.4715C20.8827 49.6965 19.0961 49.6965 17.3312 49.4715C14.5617 49.2491 11.8841 48.3799 9.51624 46.9345C6.22937 45.0541 3.52583 42.3114 1.70125 39.0063C0.889355 37.3443 0.367996 35.5569 0.159512 33.7209C0.106986 32.8937 0.106986 32.064 0.159512 31.2368C0.159512 27.8541 0.159512 24.4715 0.159512 21.0888C0.159512 20.296 0.159512 19.4503 0.159512 18.6575C0.2459 16.931 0.964432 15.2955 2.17971 14.0592C3.45015 12.7274 5.176 11.9166 7.01757 11.7865C8.40314 11.6106 9.80997 11.8499 11.058 12.4736L12.1212 13.0021C12.1766 13.1015 12.2485 13.1909 12.3339 13.2664ZM27.0069 25V30.2854C27.0592 30.9186 27.0592 31.555 27.0069 32.1882C26.7587 33.258 26.279 34.2612 25.6013 35.128C24.9235 35.9948 24.0639 36.7045 23.0823 37.2075C22.1007 37.7105 21.0207 37.9949 19.9173 38.0409C18.8139 38.0868 17.7137 37.8932 16.6933 37.4736C15.5428 37.0505 14.5195 36.3434 13.7197 35.4188C12.9198 34.4941 12.3698 33.3824 12.1212 32.1882C11.954 31.4596 11.8649 30.7155 11.8554 29.9683V19.7146C11.9108 19.3112 11.9108 18.9023 11.8554 18.4989C11.6725 17.9046 11.3516 17.3614 10.9186 16.9132C10.4856 16.4649 9.95268 16.1241 9.36281 15.9183C8.77294 15.7126 8.14267 15.6476 7.52287 15.7286C6.90308 15.8096 6.31113 16.0344 5.79482 16.3848C5.38139 16.6555 5.03345 17.0139 4.77606 17.4343C4.51867 17.8547 4.35821 18.3266 4.30624 18.8161C4.25471 19.4316 4.25471 20.0504 4.30624 20.666V24.4715C4.27986 24.788 4.27986 25.1062 4.30624 25.4228C4.3593 26.0736 4.3593 26.7276 4.30624 27.3784C4.30624 28.6469 4.30624 29.9154 4.30624 31.1839C4.2251 32.1689 4.2251 33.1588 4.30624 34.1438C4.76748 36.5589 5.8183 38.8244 7.36634 40.7413C8.91439 42.6582 10.9123 44.1678 13.1845 45.1374C16.0157 46.3358 19.1236 46.738 22.1691 46.3002C24.0552 46.0412 25.866 45.393 27.4854 44.3974C29.218 43.3337 30.7479 41.9738 32.0043 40.3805C33.0723 39.0497 33.8671 37.5233 34.3435 35.888C34.872 34.1738 35.1583 32.395 35.1941 30.6025C35.1941 26.9556 35.1941 23.2558 35.1941 19.6089C35.2232 19.3101 35.2232 19.0092 35.1941 18.7104C35.0928 18.1394 34.8651 17.5979 34.5275 17.1252C34.1899 16.6524 33.7508 16.2603 33.242 15.977C32.7331 15.6937 32.1673 15.5264 31.5855 15.4872C31.0037 15.4481 30.4203 15.538 29.8777 15.7505C29.1657 15.9964 28.5455 16.4515 28.0993 17.0555C27.6531 17.6596 27.402 18.3841 27.3791 19.1332C27.3791 19.5032 27.3791 19.926 27.3791 20.3488L27.0069 25ZM46.5178 25C46.5178 23.5201 46.5178 21.9873 46.5178 20.5074C46.4907 19.2336 46.3842 17.9626 46.1989 16.7019C45.8583 14.8233 45.1542 13.0283 44.1255 11.4165C42.714 9.18206 40.7331 7.35858 38.3839 6.13108C35.5845 4.69219 32.4192 4.11004 29.2873 4.45809C26.1555 4.80614 23.1975 6.06879 20.7868 8.08668C18.4478 10.0473 16.7918 12.6926 16.0553 15.6448C15.6874 17.0447 15.4734 18.4802 15.4174 19.926C15.4174 21.3531 15.4174 22.7273 15.4174 24.1543C15.4174 24.1543 15.4174 24.4186 15.4174 24.4715C15.4657 24.5796 15.4907 24.6966 15.4907 24.815C15.4907 24.9334 15.4657 25.0504 15.4174 25.1586V26.6385C15.3113 28.2929 15.3113 29.9523 15.4174 31.6068C15.4457 32.4296 15.7658 33.2159 16.3211 33.8266C16.7731 34.3737 17.3774 34.7759 18.0584 34.9827C18.7393 35.1896 19.4666 35.1919 20.1489 34.9894C20.8336 34.8531 21.4659 34.5281 21.9736 34.0514C22.4812 33.5748 22.8437 32.9657 23.0197 32.2939C23.1012 31.7861 23.1012 31.2688 23.0197 30.7611C23.0197 28.3298 23.0197 25.9514 23.0197 23.5729C23.0197 22.0402 23.0197 20.5074 23.0197 18.9746C23.0649 17.9352 23.3563 16.9211 23.8703 16.0148C24.6715 14.6445 25.875 13.5506 27.3194 12.8799C28.7638 12.2091 30.38 11.9936 31.9511 12.2622C32.8585 12.3957 33.7301 12.7075 34.5151 13.1794C35.3 13.6512 35.9827 14.2737 36.5231 15.0106C37.6611 16.3953 38.2644 18.1384 38.2244 19.926V26.7442C38.2244 28.0127 38.2244 29.334 38.2244 30.6554C38.1465 31.2519 38.1465 31.8559 38.2244 32.4524C38.3469 33.0521 38.6284 33.6084 39.0396 34.0637C39.4509 34.519 39.977 34.8568 40.5635 35.0423C41.0564 35.1231 41.5593 35.1231 42.0521 35.0423C42.9013 35.031 43.7226 34.7392 44.3867 34.2129C45.0507 33.6867 45.5199 32.9558 45.7204 32.1353C45.7726 31.608 45.7726 31.0769 45.7204 30.5497L46.5178 25Z" fill="#12B0EF"/>
<path id="Vector_2" d="M63.2642 33.9852V40.8562C63.2642 41.4905 63.2642 41.4376 62.6794 41.4376H58.5858V17.6004C58.5858 17.019 58.5858 17.0719 59.1174 17.0719H61.3503C61.4132 17.0564 61.4786 17.0537 61.5426 17.0641C61.6066 17.0744 61.6678 17.0976 61.7225 17.1322C61.7772 17.1668 61.8242 17.2121 61.8608 17.2653C61.8973 17.3186 61.9226 17.3786 61.9351 17.4419C61.9351 17.8118 62.3072 18.1818 62.4667 18.4989C62.6262 18.8161 62.4667 18.4989 62.7325 18.4989L63.1578 18.1818C64.5486 17.1657 66.2174 16.5943 67.9425 16.5433C69.6617 16.4568 71.3718 16.8407 72.8867 17.6533C74.8431 18.6517 76.3445 20.3522 77.0866 22.4101C77.5687 23.7654 77.7677 25.2042 77.6714 26.6385C77.5598 28.7743 76.7154 30.8075 75.2791 32.3996C74.138 33.6844 72.6395 34.604 70.9728 35.0423C69.8329 35.3618 68.6433 35.4693 67.4641 35.3594C66.242 35.2567 65.0599 34.877 64.0085 34.2495L63.2642 33.9852ZM67.7299 30.814H68.102C69.0529 30.7844 69.9715 30.464 70.7326 29.8965C71.4937 29.329 72.0603 28.542 72.3551 27.6427C72.5398 26.8963 72.5398 26.1164 72.3551 25.37C72.2989 24.7158 72.104 24.0809 71.7833 23.507C71.4626 22.9331 71.0233 22.4332 70.4944 22.0402C69.8544 21.5684 69.1082 21.2592 68.3206 21.1394C67.5331 21.0197 66.728 21.093 65.9755 21.3531C65.3356 21.5335 64.745 21.8554 64.2479 22.2947C63.7507 22.734 63.3599 23.2794 63.1047 23.8901C62.6905 24.7814 62.5607 25.7773 62.7325 26.7442C62.8565 27.7399 63.3046 28.668 64.0085 29.3869C64.48 29.8888 65.0598 30.278 65.7044 30.5252C66.3489 30.7723 67.0414 30.8711 67.7299 30.814Z" fill="#28B8F1"/>
<path id="Vector_3" d="M102.711 26.8499C102.859 27.6452 103.207 28.3905 103.721 29.0169C104.209 29.6301 104.879 30.0741 105.635 30.2854C106.673 30.61 107.787 30.61 108.825 30.2854C109.713 30.0211 110.483 29.4613 111.005 28.6998C111.067 28.6022 111.154 28.522 111.256 28.4666C111.358 28.4111 111.473 28.3823 111.59 28.3827H116.374C116.374 28.3827 116.374 28.3827 116.374 28.7526C115.871 30.1488 115.038 31.4049 113.947 32.4163C112.856 33.4276 111.537 34.1649 110.101 34.5666C108.963 34.8981 107.775 35.0234 106.592 34.9366C104.618 34.8367 102.727 34.1181 101.19 32.8838C99.6519 31.6494 98.5469 29.9627 98.0329 28.0655C97.3214 25.7476 97.4723 23.2524 98.4582 21.0359C98.9949 19.7344 99.8332 18.5773 100.905 17.6589C101.977 16.7404 103.251 16.0865 104.625 15.7505C107.057 15.0392 109.672 15.3049 111.909 16.4905C113.323 17.2269 114.522 18.3149 115.389 19.6487C116.255 20.9824 116.76 22.5165 116.853 24.1015C116.959 24.82 116.959 25.55 116.853 26.2685C116.853 26.5328 116.853 26.5328 116.481 26.5328H102.711V26.8499ZM111.696 23.4144C111.696 23.4144 111.696 23.4144 111.696 23.1501C111.533 22.7473 111.337 22.3585 111.111 21.9873C110.695 21.3183 110.108 20.7711 109.41 20.4017C108.676 20.0689 107.877 19.9062 107.071 19.926C106.148 19.9271 105.249 20.2194 104.504 20.7608C103.758 21.3022 103.205 22.0648 102.924 22.9387C102.924 23.4144 102.924 23.4144 103.243 23.4144H111.271C111.271 23.4144 111.643 23.4672 111.749 23.4144H111.696Z" fill="#28B8F1"/>
<path id="Vector_4" d="M118.66 28.6469V25C118.67 24.2353 118.759 23.4737 118.926 22.7273C119.195 21.3638 119.839 20.1013 120.787 19.0803C121.9 17.7602 123.407 16.8278 125.09 16.419C126.773 16.0102 128.544 16.1464 130.144 16.8076C131.874 17.4546 133.348 18.6413 134.343 20.1903C134.858 21.0317 135.201 21.9655 135.354 22.9387C135.433 23.7825 135.433 24.6318 135.354 25.4757V32.3467C135.434 32.8013 135.434 33.2664 135.354 33.7209C135.169 34.3021 134.771 34.793 134.239 35.0965C133.708 35.3999 133.081 35.4938 132.483 35.3594C131.947 35.2711 131.455 35.0118 131.081 34.6209C130.707 34.2299 130.471 33.7285 130.409 33.1924C130.38 32.8583 130.38 32.5223 130.409 32.1882V25C130.439 24.6659 130.439 24.3299 130.409 23.9958C130.297 23.5736 130.096 23.1797 129.82 22.8396C129.545 22.4995 129.2 22.2208 128.809 22.0214C128.418 21.8221 127.989 21.7067 127.551 21.6826C127.112 21.6585 126.673 21.7263 126.263 21.8816C125.838 22.0406 125.452 22.2879 125.131 22.6069C124.811 22.9259 124.562 23.3093 124.402 23.7315C124.326 24.1154 124.326 24.5104 124.402 24.8943V32.5581C124.479 33.013 124.479 33.4775 124.402 33.9324C124.301 34.2518 124.135 34.5476 123.916 34.8019C123.697 35.0562 123.428 35.2638 123.126 35.4123C122.771 35.5806 122.382 35.6667 121.988 35.6641C121.595 35.6616 121.207 35.5704 120.854 35.3975C120.501 35.2245 120.192 34.9743 119.95 34.6657C119.708 34.357 119.54 33.9978 119.458 33.6152C119.405 33.3002 119.405 32.9788 119.458 32.6639V28.8584L118.66 28.6469Z" fill="#28B8F1"/>
<path id="Vector_5" d="M96.1723 23.6786V27.4841C96.1659 28.1967 96.0767 28.9061 95.9065 29.5983C95.5446 31.1928 94.6894 32.6345 93.461 33.7209C92.3849 34.7134 91.0646 35.4062 89.6332 35.7294C88.6217 35.98 87.5703 36.0296 86.5394 35.8754C85.5085 35.7212 84.5184 35.3663 83.6258 34.8309C82.6011 34.3178 81.7095 33.5762 81.0208 32.6639C80.291 31.778 79.7973 30.7238 79.5854 29.5983C79.3719 28.7514 79.2647 27.8815 79.2664 27.0085V19.7146C79.2565 19.1467 79.3841 18.5847 79.6385 18.0761C79.8453 17.6089 80.2042 17.2245 80.6575 16.9848C81.1108 16.7451 81.632 16.6641 82.1372 16.7548C82.6954 16.7942 83.2241 17.0188 83.6386 17.3926C84.0531 17.7663 84.3294 18.2676 84.4232 18.8161C84.4494 19.1327 84.4494 19.4508 84.4232 19.7674V26.5856C84.3705 27.0775 84.3705 27.5736 84.4232 28.0655C84.5226 28.6385 84.7785 29.1732 85.1629 29.6113C85.5473 30.0494 86.0455 30.374 86.6029 30.5497C87.3506 30.806 88.1695 30.7616 88.8847 30.4258C89.5999 30.09 90.1547 29.4896 90.4307 28.7526C90.5926 28.4414 90.6834 28.0985 90.6965 27.7484C90.6965 27.2727 90.6965 26.8499 90.6965 26.4271V19.7146C90.6185 19.2953 90.6185 18.8654 90.6965 18.4461C90.7791 18.0755 90.9538 17.7315 91.2045 17.4453C91.4552 17.1591 91.7741 16.9398 92.1319 16.8076C92.4712 16.6577 92.8393 16.5833 93.2106 16.5894C93.5818 16.5956 93.9472 16.6822 94.2813 16.8432C94.6154 17.0043 94.9101 17.2359 95.1449 17.5218C95.3797 17.8078 95.5489 18.1413 95.6407 18.4989C95.6955 18.8492 95.6955 19.2058 95.6407 19.556V23.5201L96.1723 23.6786Z" fill="#28B8F1"/>
<path id="Vector_6" d="M175.226 17.1247C175.226 17.1247 175.545 17.1247 175.704 17.1247H180.17C180.22 17.0763 180.287 17.0492 180.356 17.0492C180.426 17.0492 180.493 17.0763 180.542 17.1247V17.6533L184.53 26.8499C184.53 27.167 184.53 27.4842 185.008 27.6956C185.195 27.4453 185.322 27.1561 185.38 26.8499C186.709 23.6787 187.985 20.5074 189.261 17.389C189.286 17.3002 189.344 17.2238 189.422 17.1749C189.501 17.1261 189.595 17.1082 189.686 17.1247H194.258C194.258 17.1247 194.258 17.1247 194.258 17.389L191.866 22.6744C190.218 26.4271 188.57 30.1797 186.869 33.9324C186.39 35.0423 185.912 36.0994 185.327 37.1565C184.855 37.9174 184.302 38.6261 183.679 39.2706C182.702 40.2433 181.433 40.874 180.064 41.0677C179.214 41.1204 178.362 41.1204 177.512 41.0677H177.14C176.874 41.0677 176.874 41.0677 176.821 40.6977V36.945H179.32C179.725 36.8998 180.115 36.7677 180.464 36.5578C180.813 36.3479 181.112 36.0653 181.34 35.7294C181.701 35.099 182.021 34.4458 182.297 33.7738C182.349 33.6956 182.377 33.6036 182.377 33.5095C182.377 33.4154 182.349 33.3235 182.297 33.2452L181.499 31.5011L175.332 18.0761C175.277 17.7616 175.241 17.4438 175.226 17.1247Z" fill="#28B8F1"/>
<path id="Vector_7" d="M169.697 28.1184V34.5666C169.697 34.8837 169.697 34.8837 169.325 34.8837H165.019V22.2516C165.098 21.9572 165.098 21.6474 165.019 21.3531C164.755 21.3004 164.484 21.3004 164.221 21.3531H162.254C162.254 21.3531 162.254 21.3531 162.254 21.0888V17.6004H164.965V15.4863C165.022 14.7169 165.22 13.9644 165.55 13.2664C165.866 12.635 166.322 12.0833 166.884 11.6529C167.446 11.2226 168.099 10.9248 168.793 10.7822C169.412 10.7305 170.035 10.7305 170.654 10.7822H174.003V13.9535H171.824H170.973C170.67 14.0114 170.392 14.1581 170.174 14.3748C169.956 14.5915 169.808 14.8682 169.75 15.1691C169.721 15.3972 169.721 15.6281 169.75 15.8562V17.0719C169.75 17.0719 169.75 17.0719 170.016 17.0719H174.11C174.11 17.0719 174.375 17.0719 174.375 17.3361V20.7717C174.375 20.7717 174.375 21.0359 174.11 21.0359H170.069V27.6427L169.697 28.1184Z" fill="#28B8F1"/>
<path id="Vector_8" d="M139.926 25.37V21.1417H137.002V20.3488C136.957 20.2295 136.957 20.0982 137.002 19.9789L138.916 17.9704L143.381 13.2135L143.753 12.8964C143.753 12.8964 143.753 12.8964 144.019 12.8964C144.285 12.8964 144.763 12.8964 144.763 13.5835V17.2304V17.4947H149.282V21.0359H145.242C144.87 21.0359 144.87 21.0359 144.87 21.4059V27.8541C144.815 28.2398 144.815 28.6313 144.87 29.0169C144.98 29.3641 145.173 29.6798 145.433 29.9374C145.692 30.1949 146.009 30.3868 146.358 30.4968C146.711 30.5482 147.069 30.5482 147.422 30.4968H149.495V34.408H145.986C144.586 34.427 143.223 33.9635 142.128 33.0964C141.033 32.2292 140.273 31.0119 139.979 29.6512C139.926 29.1769 139.926 28.6983 139.979 28.2241V24.8943L139.926 25.37Z" fill="#28B8F1"/>
<path id="Vector_9" d="M153.482 26.0042V17.389C153.482 17.389 153.482 17.0719 153.801 17.0719H158.214V34.6195H153.642C153.616 34.4619 153.616 34.3013 153.642 34.1438L153.482 26.0042Z" fill="#28B8F1"/>
<path id="Vector_10" d="M155.875 10.0951C156.495 10.1219 157.083 10.3826 157.517 10.8244C157.952 11.2662 158.201 11.8558 158.214 12.4736C158.2 13.0861 157.949 13.6699 157.514 14.1031C157.078 14.5363 156.491 14.7857 155.875 14.7992C155.534 14.85 155.187 14.8273 154.856 14.7324C154.525 14.6376 154.219 14.4729 153.958 14.2496C153.697 14.0263 153.488 13.7497 153.344 13.4386C153.201 13.1276 153.127 12.7894 153.127 12.4471C153.127 12.1049 153.201 11.7667 153.344 11.4556C153.488 11.1446 153.697 10.8679 153.958 10.6447C154.219 10.4214 154.525 10.2567 154.856 10.1619C155.187 10.067 155.534 10.0443 155.875 10.0951Z" fill="#28B8F1"/>
</g>
<defs>
<clipPath id="clip0_165_109">
<rect width="194.737" height="50" fill="white"/>
</clipPath>
</defs>
</svg>
