<svg xmlns="http://www.w3.org/2000/svg" xmlns:xlink="http://www.w3.org/1999/xlink" width="8000" zoomAndPan="magnify" viewBox="0 0 6000 1874.999927" height="2500" preserveAspectRatio="xMidYMid meet" version="1.0"><defs><g/><clipPath id="ec0375b96b"><path d="M 4490.460938 409.695312 L 4701.207031 409.695312 L 4701.207031 632.6875 L 4490.460938 632.6875 Z M 4490.460938 409.695312 " clip-rule="nonzero"/></clipPath><clipPath id="f2ca2e9ba0"><path d="M 4545.785156 485.519531 L 4678.730469 485.519531 L 4678.730469 618.46875 L 4545.785156 618.46875 Z M 4545.785156 485.519531 " clip-rule="nonzero"/></clipPath><clipPath id="dbd043504e"><path d="M 4612.257812 485.519531 C 4575.542969 485.519531 4545.785156 515.28125 4545.785156 551.996094 C 4545.785156 588.707031 4575.542969 618.46875 4612.257812 618.46875 C 4648.96875 618.46875 4678.730469 588.707031 4678.730469 551.996094 C 4678.730469 515.28125 4648.96875 485.519531 4612.257812 485.519531 " clip-rule="nonzero"/></clipPath></defs><rect x="-600" width="7200" fill="#ffffff" y="-187.499993" height="2249.999912" fill-opacity="1"/><rect x="-600" width="7200" fill="#ffffff" y="-187.499993" height="2249.999912" fill-opacity="1"/><g fill="#26b9f1" fill-opacity="1"><g transform="translate(1778.747445, 1192.109017)"><g><path d="M 342.460938 -522.15625 C 279.425781 -522.15625 222.976562 -499.578125 179.699219 -461.003906 L 156.175781 -508.042969 L 65.859375 -508.042969 L 65.859375 183.460938 L 203.21875 183.460938 L 203.21875 -27.285156 C 241.792969 0 289.773438 15.992188 342.460938 15.992188 C 495.8125 15.992188 608.710938 -99.726562 608.710938 -254.023438 C 608.710938 -407.375 495.8125 -522.15625 342.460938 -522.15625 Z M 331.167969 -114.78125 C 251.199219 -114.78125 192.867188 -174.050781 192.867188 -254.023438 C 192.867188 -333.050781 251.199219 -393.265625 331.167969 -393.265625 C 411.140625 -393.265625 469.472656 -333.050781 469.472656 -254.023438 C 469.472656 -174.050781 411.140625 -114.78125 331.167969 -114.78125 Z M 331.167969 -114.78125 "/></g></g></g><g fill="#26b9f1" fill-opacity="1"><g transform="translate(2428.853321, 1192.109017)"><g/></g></g><g fill="#26b9f1" fill-opacity="1"><g transform="translate(2662.177163, 1192.109017)"><g/></g></g><g fill="#26b9f1" fill-opacity="1"><g transform="translate(2895.501005, 1192.109017)"><g/></g></g><g fill="#26b9f1" fill-opacity="1"><g transform="translate(3128.824846, 1192.109017)"><g/></g></g><g fill="#26b9f1" fill-opacity="1"><g transform="translate(3362.148688, 1192.109017)"><g/></g></g><g fill="#26b9f1" fill-opacity="1"><g transform="translate(3595.472578, 1192.109017)"><g/></g></g><g fill="#26b9f1" fill-opacity="1"><g transform="translate(3828.796467, 1192.109017)"><g/></g></g><g fill="#26b9f1" fill-opacity="1"><g transform="translate(4062.113222, 1192.109017)"><g><path d="M 314.234375 -122.308594 C 263.429688 -122.308594 235.207031 -150.53125 235.207031 -199.453125 L 235.207031 -397.027344 L 373.507812 -397.027344 L 373.507812 -508.042969 L 233.324219 -508.042969 L 233.324219 -639.761719 L 206.980469 -639.761719 L 6.585938 -427.132812 L 6.585938 -397.027344 L 97.84375 -397.027344 L 97.84375 -180.636719 C 97.84375 -68.679688 166.527344 0 278.484375 0 L 376.328125 0 L 376.328125 -122.308594 Z M 314.234375 -122.308594 "/></g></g></g><g fill="#26b9f1" fill-opacity="1"><g transform="translate(4475.13411, 1192.109017)"><g><path d="M 65.859375 -575.785156 L 202.277344 -575.785156 L 202.277344 -702.796875 L 65.859375 -702.796875 Z M 65.859375 0 L 203.21875 0 L 203.21875 -508.042969 L 65.859375 -508.042969 Z M 65.859375 0 "/></g></g></g><g fill="#26b9f1" fill-opacity="1"><g transform="translate(4752.676584, 1192.109017)"><g><path d="M 376.328125 -500.519531 L 245.554688 -500.519531 L 245.554688 -543.796875 C 245.554688 -579.546875 264.371094 -598.363281 301.0625 -598.363281 L 375.386719 -598.363281 L 375.386719 -706.558594 L 273.78125 -706.558594 C 166.527344 -706.558594 111.957031 -644.464844 111.957031 -546.617188 L 111.957031 -500.519531 L 23.519531 -500.519531 L 23.519531 -387.621094 L 111.015625 -387.621094 L 111.015625 0 L 248.378906 0 L 248.378906 -387.621094 L 376.328125 -387.621094 Z M 376.328125 -500.519531 "/></g></g></g><g fill="#26b9f1" fill-opacity="1"><g transform="translate(5151.584985, 1192.109017)"><g><path d="M 416.785156 -508.042969 L 289.773438 -194.75 L 154.296875 -508.042969 L 4.703125 -508.042969 L 220.152344 -38.574219 L 218.269531 -34.808594 C 187.222656 42.335938 170.289062 60.210938 103.492188 60.210938 L 56.449219 60.210938 L 56.449219 183.460938 L 112.898438 183.460938 C 226.738281 183.460938 280.367188 131.714844 341.519531 -6.585938 L 562.613281 -508.042969 Z M 416.785156 -508.042969 "/></g></g></g><path fill="#10afef" d="M 1258.027344 1246.164062 C 1250.917969 1263.824219 1244.722656 1279.40625 1238.371094 1294.910156 C 1108.613281 1611.097656 659.011719 1746.859375 374.363281 1483.085938 C 281.238281 1396.75 217.117188 1295.546875 198.140625 1169.136719 C 191.589844 1125.585938 190.550781 1080.960938 190.191406 1036.773438 C 189.351562 937.808594 188.351562 838.765625 191.308594 739.878906 C 196.222656 577.152344 374.363281 480.105469 515.109375 561.847656 C 523.339844 566.644531 531.488281 571.597656 541.753906 577.75 C 547.789062 563.289062 553.222656 549.984375 558.933594 536.796875 C 676.949219 263.558594 982.488281 128.277344 1252.835938 232.277344 C 1457.78125 311.144531 1577.433594 461.566406 1609.191406 678.953125 C 1616.464844 728.851562 1613.90625 780.3125 1613.988281 831.09375 C 1614.105469 916.035156 1614.386719 1001.015625 1611.390625 1085.875 C 1608.515625 1167.617188 1568.761719 1229.546875 1496.730469 1267.699219 C 1424.742188 1305.855469 1352.113281 1302.058594 1281.558594 1261.269531 C 1274.046875 1256.914062 1266.976562 1251.917969 1258.027344 1246.164062 Z M 297.976562 922.066406 C 298.375 922.066406 298.734375 922.066406 299.136719 922.066406 C 299.136719 993.664062 291.785156 1066.175781 300.535156 1136.65625 C 325.742188 1339.335938 485.503906 1491.238281 691.050781 1513.371094 C 853.128906 1530.832031 984.246094 1471.5 1086.242188 1345.929688 C 1154.238281 1262.226562 1176.289062 1162.824219 1178.488281 1058.347656 C 1180.644531 955.707031 1179.644531 852.949219 1178.6875 750.269531 C 1178.367188 714.308594 1165.582031 681.949219 1136.257812 659.054688 C 1099.664062 630.488281 1058.675781 626.972656 1017.367188 645.871094 C 973.820312 665.765625 955.441406 703.921875 954.964844 749.828125 C 953.925781 848.074219 954.804688 946.359375 954.363281 1044.601562 C 954.285156 1065.136719 953.164062 1085.835938 950.25 1106.128906 C 928.597656 1257.953125 764.800781 1339.9375 631.003906 1265.023438 C 553.339844 1221.554688 520.5 1150.476562 519.304688 1064.339844 C 517.785156 958.703125 519.664062 853.027344 518.503906 747.390625 C 517.863281 687.382812 471.882812 641.796875 411.875 638 C 355.226562 634.402344 303.289062 674.675781 298.976562 733.925781 C 294.460938 796.375 297.976562 859.339844 297.976562 922.066406 Z M 620.496094 882.394531 C 622.175781 882.433594 623.894531 882.472656 625.570312 882.511719 C 625.570312 948.195312 622.613281 1014.078125 626.410156 1079.5625 C 630.085938 1143.046875 680.144531 1185.796875 739.351562 1183.640625 C 801.355469 1181.363281 846.417969 1134.136719 847.535156 1069.214844 C 848.253906 1028.621094 847.457031 987.988281 847.855469 947.355469 C 848.65625 872.085938 845.777344 796.492188 851.8125 721.621094 C 861.320312 603.441406 963.035156 522.257812 1085.363281 529.046875 C 1192.910156 535 1282.359375 632.328125 1282.996094 744.675781 C 1283.476562 831.8125 1283.078125 918.949219 1283.636719 1006.085938 C 1283.835938 1036.292969 1282.757812 1066.9375 1287.351562 1096.582031 C 1294.980469 1145.484375 1329.300781 1178.566406 1373.683594 1185.675781 C 1448.550781 1197.664062 1506.242188 1148.761719 1507.320312 1069.933594 C 1508.636719 976.402344 1509.597656 882.753906 1507.238281 789.261719 C 1505.960938 738.601562 1502.285156 687.0625 1491.539062 637.679688 C 1446.074219 429.085938 1239.53125 281.21875 1019.921875 307.746094 C 816.933594 332.277344 663.246094 474.550781 631.523438 677.074219 C 620.976562 744.433594 623.773438 813.914062 620.496094 882.394531 Z M 620.496094 882.394531 " fill-opacity="1" fill-rule="nonzero"/><g fill="#26b9f1" fill-opacity="1"><g transform="translate(2373.006958, 1211.544572)"><g><path d="M 394.3125 -261.375 L 394.3125 -453.515625 C 395.050781 -478.828125 402.125 -498.929688 415.53125 -513.828125 C 428.9375 -528.722656 446.804688 -536.171875 469.140625 -536.171875 C 490.742188 -536.171875 508.429688 -528.535156 522.203125 -513.265625 C 535.984375 -498.003906 542.875 -478.085938 542.875 -453.515625 L 542.875 -249.09375 C 542.875 -212.601562 538.773438 -180.953125 530.578125 -154.140625 C 522.390625 -127.335938 508.988281 -102.394531 490.375 -79.3125 C 468.03125 -51.007812 440.472656 -28.851562 407.703125 -12.84375 C 374.941406 3.164062 340.6875 11.171875 304.9375 11.171875 C 263.238281 11.171875 223.585938 0.5625 185.984375 -20.65625 C 148.378906 -41.882812 118.40625 -70.742188 96.0625 -107.234375 C 85.632812 -124.359375 77.628906 -145.578125 72.046875 -170.890625 C 66.460938 -196.210938 63.671875 -223.398438 63.671875 -252.453125 L 63.671875 -453.515625 C 64.410156 -478.828125 71.296875 -498.929688 84.328125 -513.828125 C 97.359375 -528.722656 115.046875 -536.171875 137.390625 -536.171875 C 159.734375 -536.171875 177.789062 -528.535156 191.5625 -513.265625 C 205.34375 -498.003906 212.234375 -478.085938 212.234375 -453.515625 L 212.234375 -265.84375 C 212.234375 -243.507812 212.976562 -227.5 214.46875 -217.8125 C 215.957031 -208.132812 218.5625 -198.828125 222.28125 -189.890625 C 228.988281 -174.992188 239.972656 -162.519531 255.234375 -152.46875 C 270.503906 -142.414062 286.703125 -137.390625 303.828125 -137.390625 C 329.890625 -137.390625 351.484375 -146.695312 368.609375 -165.3125 C 385.742188 -183.9375 394.3125 -206.648438 394.3125 -233.453125 Z M 394.3125 -261.375 "/></g></g></g><g fill="#26b9f1" fill-opacity="1"><g transform="translate(4098.024266, 671.557995)"><g><path d="M -394.3125 261.375 L -394.3125 453.515625 C -395.050781 478.828125 -402.125 498.929688 -415.53125 513.828125 C -428.9375 528.722656 -446.804688 536.171875 -469.140625 536.171875 C -490.742188 536.171875 -508.429688 528.535156 -522.203125 513.265625 C -535.984375 498.003906 -542.875 478.085938 -542.875 453.515625 L -542.875 249.09375 C -542.875 212.601562 -538.773438 180.953125 -530.578125 154.140625 C -522.390625 127.335938 -508.988281 102.394531 -490.375 79.3125 C -468.03125 51.007812 -440.472656 28.851562 -407.703125 12.84375 C -374.941406 -3.164062 -340.6875 -11.171875 -304.9375 -11.171875 C -263.238281 -11.171875 -223.585938 -0.5625 -185.984375 20.65625 C -148.378906 41.882812 -118.40625 70.742188 -96.0625 107.234375 C -85.632812 124.359375 -77.628906 145.578125 -72.046875 170.890625 C -66.460938 196.210938 -63.671875 223.398438 -63.671875 252.453125 L -63.671875 453.515625 C -64.410156 478.828125 -71.296875 498.929688 -84.328125 513.828125 C -97.359375 528.722656 -115.046875 536.171875 -137.390625 536.171875 C -159.734375 536.171875 -177.789062 528.535156 -191.5625 513.265625 C -205.34375 498.003906 -212.234375 478.085938 -212.234375 453.515625 L -212.234375 265.84375 C -212.234375 243.507812 -212.976562 227.5 -214.46875 217.8125 C -215.957031 208.132812 -218.5625 198.828125 -222.28125 189.890625 C -228.988281 174.992188 -239.972656 162.519531 -255.234375 152.46875 C -270.503906 142.414062 -286.703125 137.390625 -303.828125 137.390625 C -329.890625 137.390625 -351.484375 146.695312 -368.609375 165.3125 C -385.742188 183.9375 -394.3125 206.648438 -394.3125 233.453125 Z M -394.3125 261.375 "/></g></g></g><g fill="#26b9f1" fill-opacity="1"><g transform="translate(2922.240361, 1185.665525)"><g><path d="M 580.746094 -264.953125 C 580.746094 -417.472656 469.289062 -542.617188 306.992188 -542.617188 C 150.5625 -542.617188 33.242188 -422.359375 33.242188 -263.976562 C 33.242188 -105.589844 151.542969 15.644531 306.992188 15.644531 C 430.183594 15.644531 530.882812 -57.683594 569.015625 -173.050781 L 419.429688 -173.050781 C 397.917969 -134.921875 356.855469 -111.457031 306.992188 -111.457031 C 237.578125 -111.457031 190.648438 -151.542969 177.9375 -223.890625 L 577.8125 -223.890625 C 579.769531 -237.578125 580.746094 -251.265625 580.746094 -264.953125 Z M 306.992188 -420.40625 C 371.519531 -420.40625 417.472656 -385.210938 438.003906 -320.679688 L 181.851562 -320.679688 C 198.46875 -383.253906 243.445312 -420.40625 306.992188 -420.40625 Z M 306.992188 -420.40625 "/></g></g></g><g clip-path="url(#ec0375b96b)"><path fill="#ffffff" d="M 4490.460938 409.695312 L 4701.023438 409.695312 L 4701.023438 632.640625 L 4490.460938 632.640625 Z M 4490.460938 409.695312 " fill-opacity="1" fill-rule="nonzero"/></g><g clip-path="url(#f2ca2e9ba0)"><g clip-path="url(#dbd043504e)"><path fill="#26b9f1" d="M 4545.785156 485.519531 L 4678.730469 485.519531 L 4678.730469 618.46875 L 4545.785156 618.46875 Z M 4545.785156 485.519531 " fill-opacity="1" fill-rule="nonzero"/></g></g></svg>