<svg width="21" height="20" viewBox="0 0 21 20" fill="none" xmlns="http://www.w3.org/2000/svg">
<g clip-path="url(#clip0_98_1314)">
<path d="M15.578 12.93C16.7884 11.2784 17.3305 9.23062 17.0959 7.19644C16.8613 5.16226 15.8673 3.29168 14.3127 1.95892C12.7582 0.626155 10.7577 -0.070492 8.71158 0.00834944C6.66544 0.0871909 4.72452 0.935706 3.27712 2.38414C1.82973 3.83257 0.982599 5.7741 0.905222 7.8203C0.827845 9.86649 1.52592 11.8665 2.8598 13.4201C4.19367 14.9737 6.06497 15.9663 8.09931 16.1995C10.1337 16.4326 12.181 15.8891 13.8318 14.6775H13.8305C13.868 14.7275 13.908 14.775 13.953 14.8213L18.7655 19.6338C18.9999 19.8683 19.3179 20.0001 19.6495 20.0003C19.9811 20.0004 20.2991 19.8688 20.5337 19.6344C20.7682 19.4 20.9 19.082 20.9002 18.7504C20.9003 18.4189 20.7687 18.1008 20.5343 17.8663L15.7218 13.0538C15.6771 13.0085 15.629 12.968 15.578 12.93ZM15.9005 8.125C15.9005 9.02784 15.7227 9.92184 15.3772 10.756C15.0317 11.5901 14.5253 12.348 13.8869 12.9864C13.2485 13.6248 12.4906 14.1312 11.6565 14.4767C10.8224 14.8222 9.92837 15 9.02554 15C8.1227 15 7.2287 14.8222 6.39459 14.4767C5.56047 14.1312 4.80258 13.6248 4.16418 12.9864C3.52577 12.348 3.01937 11.5901 2.67386 10.756C2.32836 9.92184 2.15054 9.02784 2.15054 8.125C2.15054 6.30164 2.87486 4.55296 4.16418 3.26364C5.45349 1.97433 7.20217 1.25 9.02554 1.25C10.8489 1.25 12.5976 1.97433 13.8869 3.26364C15.1762 4.55296 15.9005 6.30164 15.9005 8.125Z" fill="white"/>
</g>
<defs>
<clipPath id="clip0_98_1314">
<rect width="20" height="20" fill="white" transform="translate(0.900391)"/>
</clipPath>
</defs>
</svg>
