<svg width="126" height="25" viewBox="0 0 126 25" fill="none" xmlns="http://www.w3.org/2000/svg">
<g id="Group 238487">
<path id="Star 1" d="M13 0L15.8064 8.63729H24.8882L17.5409 13.9754L20.3473 22.6127L13 17.2746L5.65268 22.6127L8.45911 13.9754L1.11179 8.63729H10.1936L13 0Z" fill="white"/>
<path id="Star 2" d="M38 0L40.8064 8.63729H49.8882L42.5409 13.9754L45.3473 22.6127L38 17.2746L30.6527 22.6127L33.4591 13.9754L26.1118 8.63729H35.1936L38 0Z" fill="white"/>
<path id="Star 3" d="M63 0L65.8064 8.63729H74.8882L67.5409 13.9754L70.3473 22.6127L63 17.2746L55.6527 22.6127L58.4591 13.9754L51.1118 8.63729H60.1936L63 0Z" fill="white"/>
<path id="Star 4" d="M88 0L90.8064 8.63729H99.8882L92.5409 13.9754L95.3473 22.6127L88 17.2746L80.6527 22.6127L83.4591 13.9754L76.1118 8.63729H85.1936L88 0Z" fill="white"/>
<path id="Star 5" d="M113 1.61804L115.331 8.7918L115.443 9.13729H115.806H123.349L117.247 13.5709L116.953 13.7844L117.065 14.1299L119.396 21.3037L113.294 16.8701L113 16.6565L112.706 16.8701L106.604 21.3037L108.935 14.1299L109.047 13.7844L108.753 13.5709L102.651 9.13729H110.194H110.557L110.669 8.7918L113 1.61804Z" stroke="white"/>
</g>
</svg>
