<svg width="80" height="80" viewBox="0 0 80 80" fill="none" xmlns="http://www.w3.org/2000/svg">
<path d="M70.2667 28.6V51.4C70.2667 55.1333 68.2667 58.6 65.0334 60.5L45.2334 71.9333C42 73.8 38 73.8 34.7334 71.9333L14.9334 60.5C13.3393 59.5757 12.0165 58.2482 11.0979 56.6509C10.1792 55.0536 9.69715 53.2426 9.70002 51.4V28.6C9.70002 24.8666 11.7 21.4 14.9334 19.5L34.7334 8.06663C37.9667 6.19996 41.9667 6.19996 45.2334 8.06663L65.0334 19.5C68.2667 21.4 70.2667 24.8333 70.2667 28.6Z" stroke="#0052B4" stroke-width="1.5" stroke-linecap="round" stroke-linejoin="round"/>
<path d="M53.3334 55.5333C53.3334 49.5333 47.3667 44.6666 40 44.6666C32.6334 44.6666 26.6667 49.5333 26.6667 55.5333M40 36.6666C42.0599 36.6666 44.0354 35.8484 45.4919 34.3918C46.9484 32.9353 47.7667 30.9598 47.7667 28.9C47.7667 26.8401 46.9484 24.8646 45.4919 23.4081C44.0354 21.9516 42.0599 21.1333 40 21.1333C37.9402 21.1333 35.9647 21.9516 34.5082 23.4081C33.0516 24.8646 32.2334 26.8401 32.2334 28.9C32.2334 30.9598 33.0516 32.9353 34.5082 34.3918C35.9647 35.8484 37.9402 36.6666 40 36.6666Z" stroke="#0052B4" stroke-width="1.5" stroke-linecap="round" stroke-linejoin="round"/>
</svg>
